<?xml version="1.0" standalone="no"?>
<!DOCTYPE svg PUBLIC "-//W3C//DTD SVG 1.1//EN" "http://www.w3.org/Graphics/SVG/1.1/DTD/svg11.dtd" >
<svg xmlns="http://www.w3.org/2000/svg">
<metadata>Generated by IcoMoon</metadata>
<defs>
<font id="icomoon" horiz-adv-x="1024">
<font-face units-per-em="1024" ascent="960" descent="-64" />
<missing-glyph horiz-adv-x="1024" />
<glyph unicode="&#x20;" horiz-adv-x="512" d="" />
<glyph unicode="&#xe900;" glyph-name="help" d="M516.4 947.2c-279.2 0-505.6-226.2-505.6-505.6 0-279.2 226.4-505.6 505.6-505.6s505.6 226.4 505.6 505.6c0 279.4-226.4 505.6-505.6 505.6zM517.8 29.2c-45 0-81.6 37.6-81.6 83.8 0 46.4 36.6 83.8 81.6 83.8s81.6-37.6 81.6-83.8c0-46.2-36.4-83.8-81.6-83.8zM745.8 556.4c-11.2-21.6-24.6-40.4-40.2-56-15.4-15.8-43.4-42.2-83.4-79.4-11-10.4-20-19.6-26.6-27.6s-11.6-15.2-15-21.8c-3.2-6.6-5.8-13.2-7.6-19.8s-4.4-18.2-8-34.8c-6.2-35.2-25.6-52.8-58.2-52.8-17 0-31.2 5.8-42.8 17.2-11.6 11.6-17.4 28.6-17.4 51.2 0 28.4 4.2 53 12.8 73.8 8.4 20.8 19.8 39.2 33.8 54.8s33 34.4 56.8 56c20.8 19 36 33.2 45.2 42.8 9.4 9.6 17.2 20.4 23.6 32.2s9.6 24.6 9.6 38.6c0 27-9.8 50-29.2 68.6s-44.4 28-75.2 28c-35.8 0-62.4-9.4-79.2-28.2-17-18.8-31.4-46.4-43-83-11-38.2-32.2-57.4-63.2-57.4-18.2 0-33.6 6.6-46.2 20s-18.8 27.8-18.8 43.4c0 32.2 10 64.8 29.8 97.8 20 33 49 60.2 87.2 81.8s82.6 32.4 133.6 32.4c47.4 0 89-9 125.2-27.2 36.2-18 64.2-42.8 84-73.8 19.8-31.2 29.6-65 29.6-101.6-0.4-28.2-6-53.6-17.2-75.2z" />
<glyph unicode="&#xe901;" glyph-name="sort" d="M265.933 532.808l222.351 257.29c12.001 15.524 35.41 15.524 47.432 0l222.351-257.29c15.258-19.722 1.229-48.333-23.716-48.333h-444.703c-24.924-0.020-38.973 28.611-23.716 48.333zM758.067 327.025l-222.351-257.331c-12.001-15.524-35.41-15.524-47.432 0l-222.351 257.331c-15.258 19.702-1.229 48.312 23.716 48.312h444.723c24.904 0 38.953-28.611 23.695-48.312z" />
<glyph unicode="&#xe902;" glyph-name="feedback" d="M129.52 146.96h751.18c10.84 0 19.64-8.78 19.64-19.62v-35.94c0-10.84-8.8-19.62-19.64-19.62h-751.18c-10.84 0-19.632 8.78-19.632 19.62v35.94c0.004 10.84 8.792 19.62 19.632 19.62zM788.849 601.416l-173.65 173.65c-3.871 3.871-3.871 10.199 0 14.090l22.958 22.958c38.769 38.769 101.601 38.769 140.37 0l47.37-47.37c38.769-38.769 38.769-101.601 0-140.37l-22.958-22.958c-3.891-3.871-10.22-3.871-14.090 0zM463.278 261.775l297.001 297.001c5.837 5.837 5.837 15.299 0 21.135l-166.584 166.605c-5.857 5.837-15.319 5.837-21.156 0l-296.98-297.001c-3.809-3.809-3.809-9.974 0-13.783l173.957-173.957c3.809-3.789 9.974-3.789 13.763 0zM256.266 415.212c-3.113 3.113-8.438 1.413-9.175-2.949l-26.358-184.75c-1.044-11.756 8.786-21.586 20.521-20.541l184.771 26.358c4.342 0.717 6.042 6.062 2.949 9.175l-172.708 172.708z" />
<glyph unicode="&#xe903;" glyph-name="triangle2" d="M361.411 751.227l351.273-303.534c21.176-16.404 21.176-48.353 0-64.758l-351.273-303.555c-26.89-20.828-65.966-1.659-65.966 32.379v607.109c0 33.997 39.076 53.166 65.966 32.358z" />
<glyph unicode="&#xe904;" glyph-name="left" d="M443.31 439.316l314.409-314.429c7.782-7.762 7.782-20.378 0-28.16l-20.849-20.849c-7.803-7.782-20.398-7.782-28.16 0l-351.764 351.764c-11.244 11.244-11.244 29.471 0 40.714l351.744 351.744c7.762 7.782 20.357 7.782 28.16 0l20.849-20.849c7.782-7.782 7.782-20.378 0-28.16l-314.388-314.409c-4.813-4.792-4.813-12.554 0-17.367z" />
<glyph unicode="&#xe905;" glyph-name="right" d="M675.512 439.316l-314.388-314.409c-7.782-7.762-7.782-20.378 0-28.16l20.849-20.849c7.803-7.782 20.398-7.782 28.16 0l351.764 351.744c11.244 11.244 11.244 29.471 0 40.714l-351.785 351.744c-7.762 7.782-20.357 7.782-28.16 0l-20.849-20.849c-7.782-7.782-7.782-20.378 0-28.16l314.409-314.429c4.813-4.772 4.813-12.534 0-17.347z" />
<glyph unicode="&#xe906;" glyph-name="assess" d="M394.67 113.275c-5.489 27.361 0 54.723 5.489 93.061 5.489 32.85 21.893 65.7 49.275 87.613 16.425 16.445 38.318 27.382 60.211 32.85 16.445 5.509 32.85 10.957 49.295 16.445-5.509 10.957-10.957 16.425-16.445 27.361-5.468 5.509-5.468 16.445-10.957 21.934-5.468 5.468-5.468 10.916-10.916 10.916-10.977 10.957-16.445 27.402-21.914 43.807-5.489 16.445-5.489 32.85-5.489 49.295 0 10.957 5.489 27.382 10.957 38.318 0 0 0 5.489 5.468 5.489 0 10.957 0 21.893 5.489 38.318 0 16.445 5.509 38.339 10.957 54.784 5.468 27.361 16.425 49.254 32.85 65.7 10.936 16.445 27.382 32.85 43.807 49.275 16.425 10.957 32.85 21.893 49.254 27.382 16.445 5.489 32.87 10.936 49.295 16.425 32.85 5.489 65.7 5.489 98.55-5.489 10.936-5.489 21.893-5.489 38.339-10.936-38.339 60.211-104.059 98.55-186.184 98.55h-383.283c-120.463 0-219.013-98.55-219.013-219.013v-383.324c0-120.443 98.55-218.993 219.013-218.993h153.313c-21.893 21.893-21.893 43.807-27.361 60.232v0zM268.718 699.167h175.227c27.382 0 43.807-21.893 43.807-43.807 0-27.402-21.893-43.827-43.807-43.827h-175.227c-27.361 0-43.807 21.914-43.807 43.827-5.448 21.893 16.445 43.807 43.807 43.807v0zM268.718 425.37c-27.361 0-43.807 21.893-43.807 43.807 0 27.402 21.893 43.827 43.807 43.827h98.55c27.382 0 43.807-21.893 43.807-43.827 0-27.361-21.893-43.807-43.807-43.807h-98.55zM734.147 715.571c10.957 0 21.914 0 38.339-5.468 10.957-5.509 21.914-5.509 32.85-10.957 10.957-5.489 21.893-10.936 27.361-16.445 10.957-5.489 16.445-10.936 21.893-16.404 10.957-16.445 16.445-27.402 21.914-43.827 5.489-16.445 10.936-32.85 10.936-49.275 0-16.445 5.509-32.85 5.509-54.764 5.468 0 5.468-5.489 5.468-10.936 0-5.509 5.489-5.509 5.489-10.957v-16.445c0-10.957 0-16.425-5.489-21.893 0-5.468-5.468-10.957-10.957-10.957-5.468-5.468-5.468-5.468-10.936-5.468 0-5.489-5.489-16.445-5.489-21.893 0-5.489-5.489-10.936-5.489-16.445 0-5.468-5.468-10.936-10.957-10.936-5.468-5.489-16.404-10.957-21.893-16.425-5.468-5.509-10.936-10.957-10.936-21.893v-21.893c0-5.509 0-10.957 5.489-21.893 5.468-5.509 5.468-10.957 16.445-21.914 5.468-5.489 16.425-10.936 27.361-16.445 10.957-5.489 21.914-10.936 32.85-10.936 10.957-5.468 21.893-5.468 38.318-10.936 10.977-5.509 21.893-10.957 32.85-16.425 10.936-5.509 16.425-16.445 21.914-27.402 0-5.489 5.468-16.425 5.468-27.382v-60.211c0-10.957-5.468-16.445-5.468-21.893 0-5.509-5.509-5.509-16.445-10.957-10.957-5.489-21.893-5.489-38.339-10.936-16.425-5.509-32.85-5.509-49.254-5.509-16.445 0-38.359-5.468-54.764-5.468-16.445 0-38.339-5.489-54.764-5.489h-87.613c-16.445 0-32.85 0-49.295 5.489-16.445 0-32.85 5.468-49.295 5.468-16.404 0-32.85 5.509-49.254 5.509-16.445 0-27.382 5.468-32.85 5.468-10.936 0-16.425 5.489-16.425 5.489-5.489 5.468-5.489 16.425-10.957 32.85 0 16.425 0 43.807 5.489 71.188 0 16.425 10.957 27.382 16.425 38.318 10.977 10.957 21.893 16.425 38.339 21.914s27.361 10.936 43.807 10.936c16.445 5.468 27.382 10.936 38.339 16.445 10.957 5.468 16.425 10.936 21.873 16.425 5.509 5.489 5.509 10.936 10.977 16.445 0 5.468 5.468 10.936 5.468 16.404v16.445c0 10.957-5.468 16.425-10.936 21.893-5.509 5.468-10.957 10.957-21.893 16.425l-10.977 10.936c0 5.468-5.489 10.916-5.489 16.425 0 5.489-5.489 10.936-5.489 21.893-5.489 0-5.489 0-10.936 5.489l-10.957 10.916c-5.468 5.509-5.468 10.957-5.468 16.445 0 5.468-5.489 16.445-5.489 21.893 0 5.489 0 10.957 5.489 16.445 0 5.489 5.468 10.936 10.916 16.425v49.295c0 16.404 5.509 27.361 10.957 43.807 5.489 16.404 10.957 32.85 21.914 43.807 5.489 10.957 16.425 21.893 27.382 27.361 10.936 5.509 21.893 16.445 32.85 16.445 10.957 5.468 21.893 5.468 32.85 10.957-10.936 5.448 0.020 5.448 10.977 5.427v0z" />
<glyph unicode="&#xe907;" glyph-name="contract" d="M500.040 919.040c-260.137 0-471.040-210.924-471.040-471.040s210.903-471.040 471.040-471.040 471.040 210.924 471.040 471.040-210.903 471.040-471.040 471.040zM391.66 710.717c55.050 54.968 143.974 59.494 205.128 10.383 60.805-48.722 75.387-134.431 33.567-200.212-7.741-12.186-17.142-23.47-26.358-34.652-9.912-12.063-10.097-23.265 1.024-34.468 4.895-4.874 9.81-9.789 14.5-14.766 13.292-14.254 17.326-31.007 9.482-48.722-7.332-16.609-22.18-21.443-39.813-21.156-29.839 0.635-59.679 0.184-89.539 0.184-30.618 0-61.42-2.028-91.73 1.024-13.107 1.29-30.74 3.297-35.881 20.89-3.645 12.513-1.167 32.973 8.253 45.998 1.925 2.662 11.448 13.292 13.783 16.302 7.393 9.277 13.005 18.985 0.696 34.365-53.228 66.662-62.894 165.151-3.113 224.829zM716.8 181.76h-430.080v40.96h430.080v-40.96zM750.858 243.2h-501.617c0 20.48-0.143 33.874 0 48.292 0.43 30.884 13.722 46.572 45.076 46.612 137.052 0.369 274.104 1.29 411.156 1.044 31.58-0.041 45.261-18.268 45.384-50.381 0.082-13.599 0-25.088 0-45.568z" />
<glyph unicode="&#xe908;" glyph-name="entry" d="M512 919.040c-260.157 0-471.040-210.924-471.040-471.040s210.883-471.040 471.040-471.040c260.116 0 471.040 210.924 471.040 471.040s-210.924 471.040-471.040 471.040zM394.506 705.085c0 17.121 13.824 31.027 30.863 31.027h169.738c17.039 0 30.843-13.906 30.843-31.027v-97.055c0-17.142-13.804-31.027-30.843-31.027h-169.738c-17.039 0-30.863 13.885-30.863 31.027v97.055zM287.601 495.452c0 10.752 8.643 19.456 19.313 19.456h187.924c2.601 0 4.69 2.109 4.69 4.731v31.99c0 6.554 5.366 11.817 11.776 11.817 6.431 0 11.796-5.263 11.796-11.817v-31.969c0-2.642 2.109-4.731 4.69-4.731h187.863c10.711 0 19.415-8.745 19.415-19.517v-115.18c0-6.451-5.366-11.858-11.796-11.858s-11.776 5.407-11.776 11.858v106.68c0 2.376-1.946 4.301-4.301 4.301h-179.405c-2.58 0-4.69-2.13-4.69-4.69v-94.433c0-6.472-5.366-11.858-11.796-11.858-6.41 0-11.776 5.386-11.776 11.858v94.433c0 2.58-2.109 4.69-4.69 4.69h-176.128c-3.83 0-6.963-3.133-7.004-6.984l-0.553-104.018c0-6.451-5.366-11.858-11.776-11.858s-11.776 5.407-11.776 11.858v115.241zM376.197 224.829c0-13.23-10.67-23.962-23.818-23.962h-103.26c-13.189 0-23.839 10.711-23.839 23.962v103.875c0 13.23 10.67 23.962 23.839 23.962h103.26c13.148 0 23.818-10.711 23.818-23.962v-103.875zM587.469 224.829c0-13.23-10.67-23.962-23.818-23.962h-103.26c-13.169 0-23.839 10.711-23.839 23.962v103.875c0 13.23 10.67 23.962 23.839 23.962h103.24c13.148 0 23.818-10.711 23.818-23.962v-103.875zM798.72 224.829c0-13.23-10.65-23.962-23.798-23.962h-103.26c-13.169 0-23.818 10.711-23.818 23.962v103.875c0 13.23 10.67 23.962 23.818 23.962h103.26c13.169 0 23.798-10.711 23.798-23.962v-103.875z" />
<glyph unicode="&#xe909;" glyph-name="initial" d="M671.396 594.473c-42.844-35.308-97.71-56.525-157.471-56.525-59.822 0-114.688 21.217-157.471 56.525 35.308-42.803 56.525-97.669 56.525-157.471s-21.217-114.668-56.525-157.471c42.803 35.308 97.669 56.504 157.471 56.504 59.781 0 114.647-21.197 157.471-56.504-35.308 42.824-56.504 97.69-56.504 157.471 0 59.822 21.217 114.668 56.504 157.471zM506.962 908.042c-260.116 0-471.040-210.924-471.040-471.040s210.924-471.040 471.040-471.040c260.157 0 471.040 210.924 471.040 471.040s-210.883 471.040-471.040 471.040zM761.16 211.19c-20.255 9.114-39.199 20.705-56.095 34.673 13.967-16.916 25.518-35.84 34.652-56.115-43.336-39.588-97.055-67.891-156.59-80.425 2.703 25.17 10.035 48.947 21.32 70.39-27.279-14.418-58.327-22.651-91.32-22.651-32.952 0-64.061 8.233-91.341 22.651 11.264-21.32 18.596-44.995 21.361-70.021-58.921 12.677-112.108 40.837-155.054 80.056 9.134 20.275 20.705 39.199 34.693 56.115-16.937-13.988-35.86-25.559-56.136-34.673-39.588 43.315-67.912 97.055-80.425 156.611 25.17-2.724 48.968-10.056 70.39-21.34-14.438 27.279-22.651 58.327-22.651 91.32 0 32.973 8.212 64.020 22.651 91.341-21.32-11.264-44.995-18.596-70.042-21.361 12.718 58.941 40.858 112.128 80.077 155.054 20.275-9.114 39.199-20.705 56.136-34.673-14.008 16.916-25.559 35.86-34.693 56.115 42.967 39.219 96.133 67.359 155.054 80.077-2.765-25.047-10.097-48.722-21.361-70.042 27.279 14.418 58.388 22.651 91.341 22.651 32.993 0 64.041-8.233 91.32-22.651-11.284 21.443-18.616 45.199-21.32 70.39 59.535-12.513 113.254-40.837 156.59-80.425-9.134-20.255-20.705-39.199-34.693-56.115 16.937 13.988 35.881 25.559 56.136 34.673 39.219-42.947 67.379-96.113 80.077-155.054-25.047 2.765-48.722 10.097-70.042 21.361 14.438-27.32 22.651-58.368 22.651-91.341 0-32.993-8.212-64.041-22.651-91.32 21.422 11.284 45.199 18.616 70.39 21.34-12.534-59.556-40.858-113.295-80.425-156.611z" />
<glyph unicode="&#xe90a;" glyph-name="post" d="M509.215 907.284c-260.137 0-471.040-210.924-471.040-471.040s210.903-471.040 471.040-471.040 471.040 210.924 471.040 471.040-210.903 471.040-471.040 471.040zM430.080 714.24h175.022l-35.758-143.36h-98.365l-40.899 146.964v-3.604zM522.076 67.604l-160.952 139.203 109.855 343.593h99.615l108.605-347.443-157.123-135.352zM737.28 284.16h-43.704l-70.267 200.909 113.971-150.467v-50.442z" />
<glyph unicode="&#xe90b;" glyph-name="rank" d="M500.040 919.040c-260.137 0-471.040-210.924-471.040-471.040s210.903-471.040 471.040-471.040 471.040 210.924 471.040 471.040-210.903 471.040-471.040 471.040zM817.070 472.33l-120.852-103.567c-7.598-7.414-11.080-18.104-9.277-28.59l28.529-166.339c2.232-13.189 0-22.61-10.772-30.495-6.103-4.485-13.414-6.758-20.664-6.758-5.591 0-11.203 1.352-16.364 4.076l-152.596 82.248c-9.441 4.956-20.664 4.956-30.065 0l-146.186-82.248c-11.837-6.246-26.214-5.181-37.048 2.683-10.834 7.885-19.436 17.285-17.162 30.454l34.939 169.841c1.782 10.465-1.659 21.156-9.277 28.59l-127.283 100.106c-9.605 9.339-13.046 23.306-8.95 36.004 4.157 12.759 15.114 21.996 28.385 23.962l165.581 29.061c10.486 1.516 19.558 8.11 24.33 17.613l76.227 160.87c5.878 11.981 18.104 19.599 31.478 19.599 13.414 0 25.6-7.619 31.498-19.599l73.277-160.87c4.669-9.503 13.763-16.097 24.269-17.613l168.55-29.061c13.23-1.925 24.248-11.203 28.365-23.962 4.137-12.718 0.614-26.665-8.929-36.004z" />
<glyph unicode="&#xe90c;" glyph-name="salary" d="M506.962 908.042c-260.116 0-471.040-210.924-471.040-471.040s210.924-471.040 471.040-471.040c260.157 0 471.040 210.924 471.040 471.040s-210.883 471.040-471.040 471.040zM694.845 345.6c11.366 0 20.275-9.728 26.849-17.551s10.24-19.476 11.121-30.372c-0.881-11.346-4.567-21.955-11.121-29.594-6.554-7.619-13.332-12.452-24.699-13.312l-123.556 0.061v-69.407c0-37.11-24.187-55.644-63.017-55.644-19.21 0-32.973 4.588-43.663 13.742-10.67 9.196-16.2 23.163-16.2 41.923v78.234h-130.806c-11.796 0-20.849 0.717-27.156 9.646-6.369 8.97-10.158 16.343-11.489 27.259 1.311 10.916 5.12 23.060 11.489 30.044 6.328 6.963 15.36 14.971 27.156 14.971h130.806v32.297l-128.553 0.655c-11.796 0.881-21.955 5.018-28.283 12.411-6.369 7.434-10.711 16.814-12.042 28.16 1.311 10.895 4.833 14.971 11.203 21.955 6.308 7.004 15.073 6.922 26.87 6.922h94.249l-87.716 159.375c-4.362 5.222-8.479 14.316-12.39 22.385-3.953 8.090-5.673 18.145-5.243 27.73 2.15 12.227 6.513 22.774 13.087 30.372 6.554 7.639 18.76 12.882 36.639 15.053 10.486-0.881 19.886-4.342 28.16-10.67 8.315-6.349 15.073-13.128 20.275-20.541l99.512-181.944 109.322 183.296c5.243 7.434 12.001 13.988 20.275 19.661 8.315 5.673 17.674 9.155 28.16 10.486 6.554-0.43 12.554-1.311 18.002-2.621s10.24-3.502 14.397-6.533c4.116-3.052 7.639-7.434 10.486-13.107s4.874-13.107 6.205-22.262c0-12.657-4.362-29.532-13.087-40.878l-101.478-169.8h96.236c11.366 0 20.275 0.082 26.849-6.902s10.24-13.496 11.121-24.392c-0.881-11.346-4.69-19.743-11.448-27.587-6.758-7.864-13.701-11.592-25.027-12.472l-122.9-0.061v-30.986h121.405z" />
<glyph unicode="&#xe90d;" glyph-name="worker" d="M372.326 407.040h-44.913c-47.636 0-90.194-56.771-80.445-103.731 1.823-8.806 11.469-19.149 20.5-19.149h153.19c16.835 0 30.597 3.297 30.597 33.874 0 43.663-36.106 89.006-78.93 89.006zM327.68 705.925c0 4.588-3.727 8.315-8.315 8.315h-24.33c-4.588 0-8.315-3.727-8.315-8.315v-85.77c0-4.588 3.727-8.315 8.315-8.315h24.33c4.588 0 8.315 3.727 8.315 8.315v85.77zM288.727 482.693c-6.41-41.841 29.102-77.353 70.943-70.943 26.051 3.973 47.35 25.293 51.343 51.364 6.41 41.82-29.102 77.332-70.922 70.943-26.071-3.994-47.391-25.293-51.364-51.364zM737.28 705.925c0 4.588-3.727 8.315-8.315 8.315h-24.33c-4.588 0-8.315-3.727-8.315-8.315v-85.77c0-4.588 3.727-8.315 8.315-8.315h24.33c4.588 0 8.315 3.727 8.315 8.315v85.77zM729.661 345.6h-167.854c-10.486 0-19.067-9.994-19.067-20.48s8.581-20.48 19.067-20.48h167.854c10.486 0 19.067 9.994 19.067 20.48s-8.581 20.48-19.067 20.48zM731.32 430.019l-171.172 0.901c-10.486 0-19.067-11.592-19.067-20.050 0-8.417 8.581-20.029 19.067-20.029l171.172-0.901c10.486 0 19.067 11.592 19.067 20.050 0 8.438-8.581 20.029-19.067 20.029zM500.040 918.385c-260.137 0-471.040-210.924-471.040-471.040s210.903-471.040 471.040-471.040 471.040 210.924 471.040 471.040-210.903 471.040-471.040 471.040zM757.76 652.8h56.873c16.343 0 25.047-15.299 25.047-31.642v-378.348c0-22.405-13.619-40.571-36.024-40.571h-598.385c-14.090 0-20.951 11.428-20.951 25.518v397.476c0 14.111 6.861 27.566 20.951 27.566h62.382c0.573 0-1.413-2.273-1.413-2.355v54.559c0 13.742 14.131 29.716 27.894 29.716h30.822c13.722 0 23.204-15.974 23.204-29.716v-57.324c0 1.864 6.472 5.12 9.503 5.12h308.695c0.594 0 9.482-0.020 9.482-0.020v52.224c0 13.742 3.42 29.716 17.162 29.716h30.802c13.742 0 34.673-15.974 34.673-29.716zM731.32 509.44h-177.050c-10.486 0-19.067-9.994-19.067-20.48s8.581-20.48 19.067-20.48h177.050c10.486 0 19.067 9.994 19.067 20.48s-8.581 20.48-19.067 20.48z" />
<glyph unicode="&#xe90e;" glyph-name="written" d="M29.041 457.073c10.097 16.998 21.217 37.048 32.686 60.129 0.655 2.212 2.355 2.54 5.222 1.024 2.683-1.679 4.874-3.195 6.902-4.383 1.679-1.331 1.495-2.867-0.676-4.547-4.874-6.246-9.605-13.824-14.295-22.426-1.352-1.679-2.191-3.174-2.888-4.854 2.191 0.328 4.895 0.84 8.11 1.843 5.898 1.864 13.148 3.707 21.729 5.55 1.679 0.164 2.867-1.679 3.379-5.222 0.328-3.707-0.369-6.062-1.7-6.738-3.871-1.864-8.581-3.707-13.476-5.407-0.328-0.164-0.328-0.328-0.164-0.328-1.7-2.703-2.703-8.090-3.195-15.688-0.348-1.679-0.492-3.195-0.492-4.547 4.874 1.188 11.1 2.683 18.35 4.383 1.331 0.492 2.519-1.7 3.543-6.738 0.84-5.038-0.676-6.922-4.71-5.222-6.246-1.024-12.636-2.191-19.21-3.871-0.655-2.519-1.167-4.874-1.679-6.902 11.284-5.222 20.746-11.121 28.979-17.367 1.024-0.655 0.84-3.707-0.348-8.929-1.352-5.714-2.703-8.765-4.383-9.093-2.028-0.676-3.195-0.328-3.85 1.331-1.024 1.352-2.028 3.564-3.379 6.41-7.578 8.765-13.824 15.995-18.862 22.057-2.54-6.554-6.39-12.288-10.936-17.183-3.031-3.727-4.055-6.574-3.727-8.253 0.348-1.843-1.495-3.707-5.386-6.042-7.598-4.055-13.844-5.919-18.698-5.571-5.243 0.348-6.738 1.516-4.035 3.543 2.867 2.519 6.902 5.55 12.124 8.929 4.874 3.543 8.929 7.25 12.124 11.305 5.55 6.554 9.093 13.988 10.629 22.897-0.348-0.164-0.676-0.348-1.024-0.348-12.452-3.707-19.538-6.226-21.053-7.229-4.69-3.379-7.393-3.871-8.397-1.536-1.024 2.191-2.54 4.71-4.055 7.393-2.028 2.724-2.028 4.055 0 4.403 1.516 0.164 3.359 0.492 5.571 1.004 6.554 1.7 15.811 4.055 28.119 7.086 0.676 0.164 1.331 0.348 2.191 0.676 0.328 4.547 0.655 8.765 0.983 12.8 0 2.519-0.143 4.71-0.143 6.574-0.369 0-0.676-0.184-0.676-0.184-3.195-0.84-6.062 0.84-8.417 4.69-2.048-2.519-4.055-5.038-5.714-7.066-5.243-5.55-9.093-9.441-11.817-11.121-5.284-3.318-6.287-2.458-3.256 2.765zM105.513 428.093c-7.598 11.633-11.121 23.245-10.793 35.226-1.659 2.007-1.331 3.195 1.208 3.707 1.659-0.184 8.090 1.331 19.026 4.198 10.629 3.031 19.538 3.543 26.624 1.864 12.8-3.871 18.022-7.25 15.667-9.769-3.543-1.864-7.066-7.414-10.281-16.527-3.707-9.257-5.386-15.831-5.386-19.374-0.676-2.028-2.028-2.683-4.055-2.028-11.776 1.024-20.89 0-26.931-2.867-1.331-0.655-2.171-0.492-2.171 0.86-0.41 1.024-1.393 2.519-2.908 4.71zM126.403 437.719c8.765 8.581 10.424 16.835 4.874 24.74-1.331 1.864-4.874 2.191-10.629 1.024-5.898-1.188-9.257-2.703-10.609-4.035-4.219-9.441-3.543-17.347 2.703-23.941 0.328-0.492 2.171-0.328 6.246 0.369 3.523 0.492 6.042 1.167 7.414 1.843zM333.128 400.486c-12.472-2.171-26.808-1.495-42.639 2.028-3.871-0.348-5.878 2.703-6.062 8.95-0.348 6.246-3.359 10.936-9.093 14.316-5.898 2.99-12.124 8.233-18.35 15.483-5.55 6.083-12.636 9.093-20.89 9.257-1.352-1.516-2.335-3.174-3.195-4.874-10.629-15.155-22.733-28.631-36.721-40.079-4.71-3.195-7.926-4.567-10.097-3.871-2.355 0.676-1.7 2.867 2.335 6.554 23.921 27.955 39.752 49.029 47.514 63.181 7.25 14.131 11.448 23.593 12.636 28.467 0.655 4.383 3.359 4.874 7.905 1.516 4.383-3.195 7.414-5.734 9.789-7.086 1.843-1.516 1.331-3.031-1.7-4.874-3.523-2.171-7.25-6.246-10.772-12.145-1.679-2.355-3.707-5.55-6.083-9.093 3.379-5.714 9.789-13.292 19.558-22.897 12.472-12.452 23.736-21.381 34.038-26.604 6.554-3.195 15.811-6.574 27.443-10.609 5.222-2.355 7.926-4.055 8.253-5.079-0.020-1.044-1.372-1.864-3.871-2.54zM367.821 466.842c17.859 4.383 39.26 9.093 64.205 13.824 11.448 2.028 22.569 3.359 33.341 4.219 10.629 0.84 16.835 1.843 18.862 2.867 1.024 0.348 1.864-0.492 2.888-2.54 0.655-2.028 1.843-3.543 3.543-4.362 1.331-0.86 2.007-3.379 2.007-7.25-0.164-4.198-1.331-5.714-3.707-4.198-15.831 3.174-34.017 3.359-54.415 0.84-1.004-1.331-2.007-3.195-2.867-5.222 0.369-0.512 0.676-1.208 1.208-2.048 2.683-4.014 8.929-8.581 18.862-13.804s14.664-8.765 14.479-10.445c-0.348-1.188-1.188-2.191-2.519-3.215-2.028-0.819-5.714-7.229-10.957-18.514-5.55-11.448-11.96-21.873-19.21-30.986-1.679-3.215-3.85-3.543-6.062-0.86-2.355 2.54-4.71 4.383-6.922 6.083-4.69 4.895-8.581 9.933-11.592 15.319-2.191 4.219-1.7 5.059 1.679 2.703 1.679-2.355 4.567-3.871 8.090-4.895 3.359-1.167 6.226-1.331 8.95-0.655 1.024 0.655 3.871 4.895 8.929 12.8 4.69 7.926 7.414 16.015 8.090 24.412-0.655 3.707-3.195 6.922-7.578 9.441-4.198 2.355-7.578 3.543-9.933 3.727-3.707-7.25-8.233-13.66-13.804-19.067-6.922-6.554-10.281-11.1-9.953-13.967 0-2.703-0.655-4.567-2.171-5.55-8.253-4.895-13.988-8.11-17.347-9.277-3.543-1.495-9.441-2.355-17.183-2.355-3.543 0-3.727 1.188-0.492 3.727 14.131 8.929 24.924 16.998 32.154 24.576 11.469 10.772 19.046 22.917 22.712 36.045-21.709-3.707-38.728-7.905-50.852-12.452-1.679-1.004-4.014 0.86-7.066 5.898-3.461 4.854-1.925 6.513 4.628 5.181zM422.748 492.462c-4.567 7.393-6.554 13.804-5.55 19.21 1.7 7.066 4.383 9.073 8.11 6.39 1.024-0.676 2.499-2.703 4.383-5.734 1.679-3.359 3.85-6.246 6.554-8.090 2.171-2.355 4.198-4.547 6.062-6.39 0.676-0.696 0.492-2.048-0.492-4.055-1.024-2.028-3.379-2.867-6.574-2.683-3.686 0-6.226-0.184-8.233-0.184-2.417-0.328-3.748 0.184-4.26 1.536zM550.953 492.79c8.253 12.82 13.292 20.91 14.991 24.412 1.004 3.215 3.523 3.215 7.578 0 3.871-3.359 4.547-5.714 2.171-7.066-2.028-1.331-6.246-6.922-12.984-16.835-6.881-9.789-8.397-13.66-4.71-11.284 5.919 1.331 11.817 2.683 17.859 4.547-2.028 2.683-3.85 4.69-5.202 6.738-0.696 0.328-0.696 1.004 0.143 2.171 0.676 1.004 1.516 1.004 2.888 0 3.543-2.171 9.257-6.062 16.998-11.776 1.208-0.696 1.536-2.703 1.208-5.919-0.369-3.174-1.352-5.55-3.031-6.717-1.7-1.024-2.867-1.188-3.359-0.348-0.676 1.024-1.864 3.359-3.871 7.066-0.348 0.369-0.676 0.696-0.676 1.024-0.655-0.164-1.188-0.328-1.495-0.328-3.871-1.208-11.612-4.403-23.081-9.277-10.465-4.71-16.691-7.578-18.534-8.602-1.024-1.167-2.171-0.655-3.523 1.352-1.7 1.843-3.564 3.543-5.243 5.222-1.864 1.352-1.495 2.519 1.352 3.727 5.202 1.516 11.94 8.745 20.521 21.893zM539.832 395.428c0.348 18.207 1.679 35.717 4.055 53.064-0.369 5.059 0.84 7.762 3.523 8.253 2.191 0.348 5.059 1.331 8.438 3.031 2.683 1.331 6.042 2.171 10.097 2.867 4.547 0.676 9.093 1.024 12.964 0.676 7.578-1.516 10.629-3.379 9.257-5.243-1.679-2.028-2.683-3.707-3.011-5.038-2.191-17.019-2.519-33.014-1.188-48.333 1.331-15.34 0.328-21.586-2.703-18.883-14.479 9.093-22.733 14.991-24.76 17.367-2.519 2.683-2.355 3.523 0.676 2.54 6.554-3.215 11.612-4.383 14.971-3.379 1.352 0.655 1.864 8.929 1.352 24.924-0.676 15.831-1.7 24.596-2.867 25.948-0.696 2.028-3.215 2.703-7.946 2.028-2.171-0.348-4.014-0.84-5.222-1.331-1.659-0.84-3.011-3.871-4.198-9.093 0.676-0.184 1.331-0.184 2.171 0.184 3.215 0.655 6.574 1.331 9.789 2.355 1.331 0.328 2.028-0.86 2.335-3.195 0.348-2.191 0-3.543-0.819-3.727-3.031-0.655-6.062-1.679-9.441-2.867-2.519-0.676-4.567-1.864-5.898-3.195-0.328-2.191-0.676-4.567-1.004-6.922 0.676-0.328 1.679-0.328 2.867 0 3.871 0.86 8.253 2.028 12.452 3.379 1.331 0.348 2.171-0.84 2.54-3.011 0.328-2.376 0-3.727-0.696-3.871-4.014-1.004-7.905-2.355-12.124-3.727-2.703-1.024-4.874-2.355-6.246-4.014-0.492-5.734-1.004-11.96-1.167-18.883 0-4.035-1.331-6.062-4.383-6.246-3.113-0.205-4.485 1.29-3.809 4.342zM638.73 439.378c-2.355-0.143-13.824-6.881-34.202-20.050 0.348-6.226 1.352-10.609 3.727-12.8 3.359-3.195 9.421-4.69 18.186-4.69 8.929 0 14.971 1.495 18.35 4.854 2.355 3.543 2.867 12.984 1.864 28.303-0.348 3.215 0.348 3.543 1.864 1.024 5.714-13.292 9.236-24.412 11.121-33.69 0.983-5.898 1.495-9.257 1.331-9.789-0.369-0.676-1.516-1.188-3.543-1.516-4.219-0.676-10.772-1.331-19.886-1.679-9.605-0.84-16.671-0.84-21.402-0.164-2.683 0.164-4.69 0.164-6.226 0.164-1.679 0-5.222 4.567-10.629 14.316-3.195 5.878-4.035 14.316-2.355 25.436 1.208 10.936 1.7 18.022 1.024 21.381-0.184 2.54 2.028 3.379 7.066 2.54 5.059-1.024 6.246-3.031 3.871-5.898-2.355-5.038-3.707-10.281-4.035-15.831 2.888 0.184 7.741 2.867 14.828 7.741 7.926 5.919 12.616 10.117 14.008 12.657 1.331 2.499 3.011 1.004 4.69-4.219 1.331-5.366 1.516-8.090 0.348-8.090zM634.675 497.5c-2.191 0-12.472-4.71-30.495-13.64 0-4.383 0.676-7.414 2.355-9.441 2.355-2.519 7.086-3.871 14.152-3.871 6.902 0 11.592 1.208 14.131 3.727 1.331 2.171 1.864 7.762 1.331 16.998-0.328 2.724 0.184 3.031 1.7 1.024 4.198-8.090 7.066-15.155 8.581-20.89 0.84-4.383 1.188-6.922 1.188-7.414-0.348-0.655-1.188-1.024-2.703-1.167-3.011-0.676-7.905-1.516-14.828-2.376-6.902-1.004-12.288-1.495-15.995-1.167-2.519 0.164-4.383 0.328-5.714 0.328-1.679-0.164-4.895 4.198-9.933 13.148-2.54 5.734-2.867 13.824-0.676 24.105 1.864 9.912 2.54 16.507 2.028 19.866-0.328 2.724 2.191 3.215 7.25 2.191 4.874-1.331 6.042-3.543 3.543-6.39-3.031-5.734-5.059-11.776-5.734-18.371 2.519 0 6.902 1.884 13.148 5.571 7.25 4.69 11.448 7.905 13.148 10.097 1.679 2.191 2.867 0.655 3.871-4.547 1.024-5.427 0.84-7.946-0.348-7.782zM766.607 433.152c-27.648-3.011-49.029-7.086-63.836-12.308-1.7-1.024-4.035 0.84-6.738 5.898-2.867 4.71-1.331 6.39 4.895 4.71 11.1 2.683 24.064 5.038 38.728 7.557-1.331 0.696-2.355 1.536-3.359 2.888-2.355 2.867-2.867 4.198-1.208 4.035 1.7-0.184 2.724-0.184 3.215 0.164 4.547 2.355 9.769 4.567 15.483 7.25 0.676 0.369 1.352 0.369 1.7 0 0-0.492-0.184-1.331-0.84-2.519-2.355-2.703-5.059-6.246-8.090-10.445 2.683 0.348 5.714 0.676 9.093 1.331 0.328 1.024 0.84 6.083 1.495 14.664-7.578-1.188-12.616-2.335-15.34-3.031-3.85-1.004-7.741-2.519-11.1-4.198-2.028-1.024-3.359-0.492-3.85 1.331-0.696 2.028-1.516 4.383-2.376 7.25-0.84 2.703 0.348 3.727 4.383 3.031 9.441 0.676 16.343 1.516 20.378 2.54 2.703 0.655 5.407 1.331 8.417 2.171-0.348 0.184-0.348 0.348 0 0.676 0 2.355 0 4.362 0 6.39-8.581-1.659-13.128-2.867-13.804-3.523-2.355-2.028-4.547-0.86-6.41 3.523-2.007 4.403-1.167 6.083 2.376 5.407 1.004 0 6.738 1.024 17.347 3.379-0.655 3.543-1.331 5.898-2.355 7.066-1.024-0.164-1.864-0.328-2.519-0.328-9.073-1.024-14.991-2.54-17.695-4.219-2.007-1.7-3.359-0.164-4.198 4.71-1.331 4.547-1.024 6.902 0.84 7.066 8.602 0.512 17.859 1.7 27.791 3.195 7.741 7.926 15.483 17.203 23.060 27.976 0.676 2.191 1.884 2.191 3.871-0.164 1.516-2.191 3.543-4.055 5.55-5.407 1.679-1.331 1.679-2.191 0.348-2.867-2.028-0.676-4.383-2.724-7.393-6.083-3.359-3.359-7.086-6.902-11.489-10.26-0.328 0-0.492-0.184-0.328-0.184 4.567 1.024 9.257 2.191 14.295 3.727 2.191 0.983 4.895-0.86 7.598-5.55 2.191-4.895 1.495-6.922-1.679-5.734-3.727 1.188-8.929 0.696-16.015-1.7-2.683-0.655-5.386-1.331-8.090-1.843-1.331-2.355-2.028-4.362-1.843-5.714-0.348-0.348-0.348-0.84-0.184-1.516 2.028 0.348 4.383 0.676 6.922 1.188 8.929 2.683 13.148 2.54 12.78-0.328-0.655-3.031-0.84-5.571-0.328-7.107 0-1.843-3.031-2.355-9.277-1.331-3.871-0.655-7.25-1.331-10.26-1.679-0.184-2.028-0.184-4.383-0.184-7.25 4.055 0.655 8.602 1.167 13.824 1.864 6.226 0.676 11.448 1.167 15.811 1.331 2.355 0.492 4.055-1.864 5.059-7.086 0.512-5.407 0-7.25-2.028-5.898-3.031 1.7-8.090 2.355-15.135 2.191l0.143-0.164c2.048-2.355 3.564-3.871 4.71-4.71 1.024-1.024 0.492-1.864-1.167-2.54-0.84-0.328-1.7-1.024-2.355-1.679-1.024-1.004-2.54-2.519-4.895-4.567-0.492-0.328-0.84-0.676-1.188-1.004 8.438 1.004 17.019 1.679 25.62 2.028 11.121 0.348 17.838 1.024 19.886 2.171 1.004 0.184 2.028-0.492 3.011-2.519 0.676-2.171 1.679-3.707 3.031-4.362 1.331-0.86 1.843-3.379 1.843-7.25-0.348-4.035-1.679-5.407-3.871-3.871-17.449 4.076-38.154 4.751-62.075 2.232zM753.644 423.547c15.135 3.564 27.464 3.871 37.192 1.208 12.145-4.055 17.019-7.25 14.684-9.605-3.031-1.024-6.595-4.71-10.793-11.305-4.198-6.554-6.738-11.284-7.066-14.316 0-1.843-0.84-2.867-2.867-2.519-17.859 2.191-31.334 1.188-40.448-2.867-1.331-0.655-2.171-0.492-2.171 0.84-0.369 1.024-1.352 2.867-3.031 5.059-7.25 7.557-11.612 15.811-13.292 24.576-1.843 1.864-1.7 3.195 0.655 3.871 2.703-0.307 11.796 1.352 27.136 5.059zM733.737 508.621c-1.659 2.028-1.659 3.174-0.328 3.543 1.659-0.164 4.69 0.348 9.257 2.048 4.547 1.475 10.772 3.174 18.862 5.018 2.355 0.205 2.519-0.492 0.492-2.335-2.028-2.683-4.874-5.407-8.929-8.090-4.198-2.867-7.578-5.407-9.912-7.762-1.372-2.683-2.888-2.683-4.567 0.184-1.823 2.847-3.523 5.222-4.874 7.393zM761.713 416.666c-10.793-1.7-17.674-3.727-20.398-6.083-1.004-5.878 0.676-10.26 5.059-12.8 0.655-1.004 4.895-1.331 12.452-0.676 7.25 0.492 12.145 1.352 14.991 2.54 6.554 3.359 9.093 7.926 7.086 13.64-2.191 3.686-8.581 4.895-19.19 3.379zM766.423 457.748c-0.328-7.741 0-12.288 0.512-13.619 0-0.184 0-0.512 0.164-0.86 0.676 0 1.352 0 2.355 0.348 3.707 4.547 6.246 7.926 7.926 10.281 1.331 2.519 2.028 4.198 2.355 5.059v0.348c-4.035-0.369-8.417-0.86-13.312-1.556zM875.438 461.292c8.581 13.619 15.995 30.147 22.405 49.684 0.348 1.7 1.004 3.543 1.864 5.386 0.492 1.864 3.707 1.516 9.257-0.819 5.222-2.54 6.574-4.403 4.035-5.919-4.69-4.547-9.441-11.448-14.295-20.726-5.407-9.257-8.95-15.811-10.629-19.333-1.7-2.724-2.355-5.571-2.355-8.438 3.195-1.331 6.554-3.031 10.097-5.059 1.679-1.188 2.191-2.867 1.495-4.71-1.331-4.547-2.007-12.452-2.007-23.245 0-11.121-0.348-20.193-1.024-27.279-0.348-1.843-0.164-3.727 0.512-5.407 1.331-2.867-2.028-3.543-9.789-1.679-2.028 0.492-2.54 1.495-1.843 3.195 1.331 8.253 2.028 19.046 2.028 32.502-0.369 9.093-0.676 16.343-1.352 21.893-1.352-2.171-3.359-4.362-5.878-6.246-5.407-3.85-11.96-8.397-19.907-12.964-4.198-2.007-5.222-1.188-2.867 2.703 4.936 7.27 11.653 15.852 20.255 26.46zM956.129 406.036c-14.971-1.331-26.931-3.359-35.205-6.083-1.516-0.84-3.707 0.86-6.39 5.571-2.867 4.547-1.188 6.062 4.71 4.547 7.578 2.028 16.343 3.85 26.952 6.083 0.328 2.028 0.328 5.038 0.328 9.748-0.328 5.243-0.492 11.817-0.328 19.886-3.052-0.492-5.919-1.004-8.786-1.495-6.554-1.352-11.776-2.355-15.811-3.195-3.871-1.024-6.41-2.191-7.086-3.195-1.843-2.376-3.85-1.352-5.898 3.359-1.843 4.383-1.843 6.902 0.348 7.414 4.035 0.492 11.796 2.335 23.572 5.898 4.198 1.331 8.95 2.355 13.476 3.523 0 8.602-0.348 13.66-0.655 15.319-2.724 5.571-0.184 7.434 7.393 5.755 7.25-1.884 9.912-4.239 8.253-6.738-0.676-0.676-1.208-4.567-1.208-11.633 2.028 0.348 3.871 0.512 6.083 0.84 4.874 0.184 10.936 0.184 17.49 0 6.246-0.328 9.953-0.328 11.305 0.184 2.028 0.84 3.871-0.86 6.246-4.874 2.028-3.871 2.867-7.414 2.499-10.117-0.655-2.867-1.331-3.871-2.355-3.195-5.55 2.703-12.964 4.219-21.873 4.874-8.253 0.676-14.828 0.492-19.702-0.164 0-1.516 0-3.215 0-4.874-0.348-12.8-0.184-21.217 0.492-24.76 4.874 0.655 9.933 1.167 15.155 1.679 5.898 0.328 9.441 0.676 10.772 1.331 1.024 0.348 1.864-0.492 2.867-2.355 0.676-2.028 1.864-3.543 3.195-4.383 1.352-0.84 1.843-3.195 1.843-7.25-0.328-3.871-1.495-5.222-3.523-3.707-9.892 2.519-21.197 3.031-34.161 2.007zM978.698 500.040c1.331-1.679-2.355-3.727-11.633-5.919-15.811-2.867-24.248-7.066-25.088-12.288 0.348-2.54-3.359-5.222-11.612-8.438-8.581-3.174-14.5-5.038-17.367-5.366-3.359-0.369-3.707 0.492-0.819 2.683 11.448 11.448 27.423 22.733 47.821 34.017 3.871 1.843 6.738 3.707 8.765 5.571 1.516 1.679 3.195 0.655 5.038-2.724 1.7-3.174 3.215-5.857 4.895-7.537z" />
<glyph unicode="&#xe90f;" glyph-name="success" d="M526.336 843.264c-217.088 0-395.264-176.128-395.264-395.264s178.176-395.264 397.312-395.264c219.136 0 395.264 178.176 395.264 395.264 0 219.136-178.176 397.312-397.312 395.264 0 2.048 0 2.048 0 0zM526.336 108.032c-188.416 0-339.968 151.552-339.968 339.968s151.552 339.968 339.968 339.968c188.416 0 339.968-151.552 339.968-339.968s-151.552-339.968-339.968-339.968c0 0 0 0 0 0zM739.328 583.168l-16.384 16.384c-6.144 6.144-18.432 6.144-24.576 0 0 0 0 0 0 0l-225.28-225.28c-4.096-4.096-10.24-4.096-12.288 0l-112.64 108.544c-6.144 6.144-18.432 6.144-24.576 0 0 0 0 0 0 0l-16.384-16.384c-6.144-6.144-6.144-18.432 0-24.576 0 0 0 0 0 0l133.12-133.12c14.336-14.336 34.816-14.336 49.152 0l251.904 249.856c4.096 6.144 4.096 16.384-2.048 24.576 0 0 0 0 0 0z" />
<glyph unicode="&#xe910;" glyph-name="sum" d="M526.336 843.264c-217.088 0-395.264-176.128-395.264-395.264s178.176-395.264 397.312-395.264c219.136 0 395.264 178.176 395.264 395.264 0 219.136-178.176 397.312-397.312 395.264 0 2.048 0 2.048 0 0zM526.336 108.032c-188.416 0-339.968 151.552-339.968 339.968s151.552 339.968 339.968 339.968c188.416 0 339.968-151.552 339.968-339.968s-151.552-339.968-339.968-339.968c0 0 0 0 0 0zM727.040 390.656h-401.408c-26.624 0-49.152 22.528-49.152 49.152v0c0 26.624 22.528 49.152 49.152 49.152h401.408c26.624 0 49.152-22.528 49.152-49.152v0c0-28.672-22.528-49.152-49.152-49.152z" />
<glyph unicode="&#xe911;" glyph-name="edit" d="M561.152 281.702l49.152 49.152-64.307 64.307-49.152-49.562v-23.757h40.96v-40.96h23.347zM747.315 586.24c-1.626 2.086-4.14 3.415-6.963 3.415s-5.337-1.329-6.948-3.395l-148.085-148.5c-2.163-1.582-3.552-4.11-3.552-6.963s1.389-5.381 3.527-6.946c1.651-2.103 4.164-3.432 6.987-3.432s5.337 1.329 6.948 3.395l148.085 148.090c2.086 1.626 3.415 4.14 3.415 6.963s-1.329 5.337-3.395 6.948l-0.020 0.015zM781.107 334.95v-80.282c-0.574-67.067-54.789-121.282-121.801-121.856h-352.106c-67.067 0.574-121.282 54.789-121.856 121.801v352.106c0 0.001 0 0.003 0 0.004 0 67.505 54.433 122.296 121.801 122.875h352.106c0.303 0.003 0.66 0.004 1.018 0.004 17.611 0 34.304-3.927 49.252-10.953 3.279-1.476 6.159-5.102 6.859-9.457 0.188-0.885 0.291-1.817 0.291-2.772 0-3.782-1.602-7.19-4.164-9.583l-20.488-20.487c-2.332-2.563-5.681-4.166-9.404-4.166-1.472 0-2.886 0.251-4.201 0.712-5.604 1.594-12.152 2.561-18.915 2.635h-352.299c0 0 0 0 0 0-37.439 0-67.789-30.35-67.789-67.789v-353.075c0-37.439 30.35-67.789 67.789-67.789 0 0 0 0 0 0h352.051c37.392 0.116 67.673 30.397 67.789 67.778v53.259c-0.001 0.046-0.001 0.101-0.001 0.155 0 3.564 1.493 6.78 3.887 9.056l26.834 27.243c2.357 2.489 5.685 4.038 9.375 4.038 1.947 0 3.794-0.431 5.45-1.204 4.85-1.641 8.333-6.227 8.333-11.628 0-0.221-0.006-0.44-0.017-0.657l0.001 0.030zM740.147 647.27l121.856-121.856-283.853-284.262h-121.856v121.856zM928.358 591.36l-38.912-38.912-122.88 121.856 38.912 38.912c7.393 7.3 17.557 11.809 28.774 11.809s21.381-4.509 28.779-11.814l64.303-64.303c7.3-7.393 11.809-17.557 11.809-28.774s-4.509-21.381-11.814-28.779l0.004 0.004z" />
<glyph unicode="&#xe912;" glyph-name="employee" d="M885.146 693.76h-71.885c0 0 0 0 0 0-8.031 0-14.541-6.51-14.541-14.541 0 0 0 0 0 0v-12.288c0-19.115-15.496-34.611-34.611-34.611h-12.288c-19.341 0-35.021 15.679-35.021 35.021 0 0 0 0 0 0v11.878c0 8.031-6.51 14.541-14.541 14.541 0 0 0 0 0 0h-380.518c0 0 0 0 0 0-8.031 0-14.541-6.51-14.541-14.541 0 0 0 0 0 0v-12.288c0-19.115-15.496-34.611-34.611-34.611h-32.768c0 0 0 0 0 0-8.031 0-14.541 6.51-14.541 14.541 0 0 0 0 0 0v32.358c0 8.031-6.51 14.541-14.541 14.541 0 0 0 0 0 0h-76.8c-17.419 0-31.539-14.121-31.539-31.539v-489.882c0-17.419 14.121-31.539 31.539-31.539h737.28c0.122-0.001 0.266-0.002 0.41-0.002 27.598 0 49.971 22.373 49.971 49.971 0 0.001 0 0.001 0 0.002v466.534c0 20.133-16.321 36.454-36.454 36.454 0 0 0 0 0 0zM300.032 550.4c3.648 0.617 7.851 0.97 12.137 0.97 42.189 0 76.39-34.201 76.39-76.39s-34.201-76.39-76.39-76.39c-42.189 0-76.39 34.201-76.39 76.39 0 4.285 0.353 8.488 1.031 12.582 5.321 32.11 30.668 57.457 62.778 62.778zM437.043 281.498c0-38.298-16.794-38.298-37.683-38.298h-188.826c-0.044 0-0.096 0-0.148 0-12.564 0-23.11 8.636-26.028 20.296-0.638 4.477-0.98 9.436-0.98 14.475 0 57.045 43.839 103.85 99.665 108.563l55.696 0.027c53.862 0 98.304-51.814 98.304-105.677zM780.288 263.68h-206.848c-13.769 3.672-23.746 16.031-23.746 30.72s9.977 27.048 23.524 30.67l207.070 0.050c13.769-3.672 23.746-16.031 23.746-30.72s-9.977-27.048-23.524-30.67zM782.336 366.080l-210.944 1.434c-13.769 3.672-23.746 16.031-23.746 30.72s9.977 27.048 23.524 30.67l211.166-1.383c13.769-3.672 23.746-16.031 23.746-30.72s-9.977-27.048-23.524-30.67zM782.336 468.48h-218.317c-13.769 3.672-23.746 16.031-23.746 30.72s9.977 27.048 23.524 30.67l218.539 0.050c13.769-3.672 23.746-16.031 23.746-30.72s-9.977-27.048-23.524-30.67zM281.395 628.838h-38.093c-16.966 0-30.72 13.754-30.72 30.72v101.171c0 16.966 13.754 30.72 30.72 30.72h38.093c16.966 0 30.72-13.754 30.72-30.72v-101.171c0-16.966-13.754-30.72-30.72-30.72zM243.302 770.97c-5.655 0-10.24-4.585-10.24-10.24v-101.171c0-5.655 4.585-10.24 10.24-10.24h38.093c5.655 0 10.24 4.585 10.24 10.24v101.171c0 5.655-4.585 10.24-10.24 10.24h-38.093zM773.12 628.838h-37.888c-16.966 0-30.72 13.754-30.72 30.72v101.171c0 16.966 13.754 30.72 30.72 30.72h37.888c16.966 0 30.72-13.754 30.72-30.72v-101.171c0-16.966-13.754-30.72-30.72-30.72zM735.232 770.97c-5.655 0-10.24-4.585-10.24-10.24v-101.171c0-5.655 4.585-10.24 10.24-10.24h37.888c5.655 0 10.24 4.585 10.24 10.24v101.171c0 5.655-4.585 10.24-10.24 10.24h-37.888z" />
<glyph unicode="&#xe913;" glyph-name="delete4" d="M698.368 581.734h-15.565v-389.12h-51.2v389.12h-85.402v-389.12h-51.2v389.12h-85.402v-389.12h-51.2v389.12h-32.768c-38.502 0-69.837 0-69.837 0v-407.347c0.458-37.654 31.089-68.001 68.808-68.001 0.362 0 0.723 0.003 1.083 0.008l372.682-0.001c0.306-0.005 0.667-0.008 1.029-0.008 37.719 0 68.35 30.348 68.808 67.958v407.39c-10.451 0.825-22.63 1.296-34.918 1.296s-24.467-0.471-36.519-1.395zM800.768 704.614h-152.166v40.96c0 24.166-43.213 43.622-68.403 43.622h-136.602c-25.19 0-68.403-20.48-68.403-43.622v-40.96h-152.986c-18.889 0-34.202-15.313-34.202-34.202s15.313-34.202 34.202-34.202h579.584c1.121-0.13 2.421-0.205 3.737-0.205 18.889 0 34.202 15.313 34.202 34.202s-15.313 34.202-34.202 34.202c-1.317 0-2.616-0.074-3.894-0.219zM579.379 704.614h-135.782v31.744h136.602v-32.154z" />
<glyph unicode="&#xe914;" glyph-name="list" d="M386.662 701.747h464.077c26.354 0 47.718-21.364 47.718-47.718v-9.421c0-26.354-21.364-47.718-47.718-47.718h-464.077c-26.354 0-47.718 21.364-47.718 47.718v9.421c0 26.354 21.364 47.718 47.718 47.718zM386.662 502.272h464.077c26.354 0 47.718-21.364 47.718-47.718v-9.421c0-26.354-21.364-47.718-47.718-47.718h-464.077c-26.354 0-47.718 21.364-47.718 47.718v9.421c0 26.354 21.364 47.718 47.718 47.718zM386.662 299.11h464.077c26.354 0 47.718-21.364 47.718-47.718v-9.421c0-26.354-21.364-47.718-47.718-47.718h-464.077c-26.354 0-47.718 21.364-47.718 47.718v9.421c0 26.354 21.364 47.718 47.718 47.718zM249.242 649.318c0-27.598-22.373-49.971-49.971-49.971s-49.971 22.373-49.971 49.971c0 27.598 22.373 49.971 49.971 49.971s49.971-22.373 49.971-49.971zM249.242 449.843c0-27.598-22.373-49.971-49.971-49.971s-49.971 22.373-49.971 49.971c0 27.598 22.373 49.971 49.971 49.971s49.971-22.373 49.971-49.971zM249.242 246.682c0-27.598-22.373-49.971-49.971-49.971s-49.971 22.373-49.971 49.971c0 27.598 22.373 49.971 49.971 49.971s49.971-22.373 49.971-49.971z" />
<glyph unicode="&#xe915;" glyph-name="calculator" d="M512-34.714c-265.804 0-481.28 215.476-481.28 481.28s215.476 481.28 481.28 481.28c265.804 0 481.28-215.476 481.28-481.28-0.349-265.663-215.617-480.931-481.246-481.28zM512 907.366c-254.493 0-460.8-206.307-460.8-460.8s206.307-460.8 460.8-460.8c254.493 0 460.8 206.307 460.8 460.8-0.349 254.352-206.448 460.451-460.766 460.8zM379.494 667.75h-18.227c-7.918 0-14.336-6.418-14.336-14.336v-49.766c0-3.506-2.842-6.349-6.349-6.349h-49.971c-7.918 0-14.336-6.418-14.336-14.336v-18.227c0-7.918 6.418-14.336 14.336-14.336h49.766c3.506 0 6.349-2.842 6.349-6.349v-49.766c0-7.918 6.418-14.336 14.336-14.336h18.227c7.918 0 14.336 6.418 14.336 14.336v49.152c-0.020 0.189-0.031 0.408-0.031 0.63 0 3.506 2.842 6.349 6.349 6.349 0.155 0 0.309-0.006 0.461-0.017l50.156 0.001c7.918 0 14.336 6.418 14.336 14.336v17.818c0 7.918-6.418 14.336-14.336 14.336h-50.176c-3.506 0-6.349 2.842-6.349 6.349v49.562c0.008 0.184 0.013 0.399 0.013 0.616 0 7.918-6.418 14.336-14.336 14.336-0.077 0-0.153-0.001-0.23-0.002zM732.774 385.126c0 0 0 0 0 0 7.918 0 14.336-6.418 14.336-14.336v-18.227c0-7.918-6.418-14.336-14.336-14.336 0 0 0 0 0 0h-159.334c-7.918 0-14.336 6.418-14.336 14.336v18.432c0 7.918 6.418 14.336 14.336 14.336h159.744zM573.44 597.094h159.539c0 0 0 0 0 0 7.918 0 14.336-6.418 14.336-14.336v-18.227c0-7.918-6.418-14.336-14.336-14.336 0 0 0 0 0 0h-159.539c-7.918 0-14.336 6.418-14.336 14.336v17.818c-0.001 0.061-0.001 0.134-0.001 0.206 0 7.959 6.395 14.425 14.327 14.539zM732.979 289.894c0 0 0 0 0 0 7.918 0 14.336-6.418 14.336-14.336 0 0 0 0 0 0v-18.227c0-7.918-6.418-14.336-14.336-14.336 0 0 0 0 0 0h-159.539c-7.918 0-14.336 6.418-14.336 14.336 0 0 0 0 0 0v22.733c0 5.882 4.768 10.65 10.65 10.65 0 0 0 0 0 0h163.84zM412.672 392.294l-38.298-38.298c-0.966-0.978-2.307-1.583-3.789-1.583s-2.823 0.606-3.788 1.583l-39.117 39.117c-2.604 2.656-6.23 4.303-10.24 4.303s-7.636-1.647-10.238-4.301l-16.181-16.182c-2.656-2.604-4.303-6.23-4.303-10.24s1.647-7.636 4.301-10.238l36.662-36.457c1.436-1.444 2.324-3.434 2.324-5.632s-0.888-4.188-2.324-5.632l-36.454-36.454c-2.656-2.604-4.303-6.23-4.303-10.24s1.647-7.636 4.301-10.238l15.977-16.181c2.604-2.656 6.23-4.303 10.24-4.303s7.636 1.647 10.238 4.301l38.914 38.3c0.966 0.978 2.307 1.583 3.789 1.583s2.823-0.606 3.788-1.583l38.298-38.298c2.604-2.656 6.23-4.303 10.24-4.303s7.636 1.647 10.238 4.301l16.181 16.182c2.656 2.604 4.303 6.23 4.303 10.24s-1.647 7.636-4.301 10.238l-36.457 36.457c-1.436 1.444-2.324 3.434-2.324 5.632s0.888 4.188 2.324 5.632l36.454 36.454c2.656 2.604 4.303 6.23 4.303 10.24s-1.647 7.636-4.301 10.238l-16.182 16.181c-2.604 2.656-6.23 4.303-10.24 4.303s-7.636-1.647-10.238-4.301z" />
<glyph unicode="&#xe916;" glyph-name="cost" d="M507.904-35.123c-265.804 0-481.28 215.476-481.28 481.28s215.476 481.28 481.28 481.28c265.804 0 481.28-215.476 481.28-481.28-0.349-265.663-215.617-480.931-481.246-481.28zM507.904 906.957c-254.493 0-460.8-206.307-460.8-460.8s206.307-460.8 460.8-460.8c254.493 0 460.8 206.307 460.8 460.8-0.349 254.352-206.448 460.451-460.766 460.8zM482.099 400.077c0 28.058 1.024 33.997-26.829 43.827-54.272 20.48-95.027 57.139-95.027 116.941-0.003 0.313-0.005 0.683-0.005 1.053 0 60.707 44.692 110.975 102.969 119.697 0.825 0.076 1.013 0.073 1.202 0.073 9.162 0 16.589 7.427 16.589 16.589 0 0.725-0.047 1.439-0.137 2.14 0.009 12 18.646 10.976 28.476 10.976s9.83-4.915 9.83-13.107c0-14.746 19.251-12.698 35.635-15.36 8.806-1.638 65.741-11.469 65.741-24.166 0-4.301-21.914-68.608-29.696-68.608-13.107 0-26.829 22.528-58.163 22.528-13.722 0-11.469-18.637-11.469-27.443v-47.718c0-25.805 1.638-33.997 28.058-43.827 65.126-22.733 106.086-64.512 106.086-131.891 0-77.824-50.586-130.662-114.688-130.662-9.693-0.192-17.476-8.094-17.476-17.814 0-1.454 0.174-2.868 0.503-4.221-0.025-13.6-8.831-10.937-20.505-10.937s-18.637-2.662-19.251 9.421c0 18.022-9.421 23.552-28.058 23.552-30.72 0-88.269 26.829-88.269 37.274s18.637 86.63 28.467 86.63c20.48 0 34.611-32.358 70.861-32.358 16.384 0 14.746 15.36 14.746 26.419v50.995zM482.099 585.626c0 15.974 2.662 26.829-11.059 26.829-20.987-1.944-37.291-19.465-37.291-40.795 0-2.081 0.155-4.126 0.455-6.124 1.962-22.012 17.099-40.249 37.476-46.773 8.576-0.106 10.215 20.374 10.215 36.143v30.72zM521.626 344.166c0-12.698 0-20.48 15.974-20.48 0.366-0.011 0.797-0.018 1.229-0.018 23.461 0 42.492 18.965 42.598 42.401-5.198 24.762-24.263 43.965-48.527 49.29-12.504 0.077-11.48-10.367-11.48-20.403v-49.971z" />
<glyph unicode="&#xe917;" glyph-name="deduction" d="M532.48-34.304c-265.804 0-481.28 215.476-481.28 481.28s215.476 481.28 481.28 481.28c265.804 0 481.28-215.476 481.28-481.28-0.349-265.663-215.617-480.931-481.246-481.28zM532.48 907.776c-254.493 0-460.8-206.307-460.8-460.8s206.307-460.8 460.8-460.8c254.493 0 460.8 206.307 460.8 460.8-0.349 254.352-206.448 460.451-460.766 460.8zM432.128 640.307c4.705-3.572 8.842-7.060 12.797-10.741 4.27-3.95 8.119-8.449 11.403-13.358l6.315-9.488q3.686-5.12 6.758-10.24l7.168-11.878h106.701c2.183 3.055 4.42 6.602 6.461 10.272q2.959 5.292 6.031 9.798l5.734 8.192q5.12 7.168 10.24 13.722c4.231 4.981 9.165 9.199 14.685 12.548 3.056 1.929 5.378 4.185 7.176 6.826 1.764 2.4 3.044 5.149 3.712 8.129 0.031 0.265 0.034 0.406 0.034 0.548 0 2.85-0.924 5.485-2.489 7.62-1.44 2.763-3.889 4.88-6.853 5.878-1.911 0.735-4.023 1.146-6.232 1.146-0.648 0-1.288-0.035-1.918-0.104-2.468-0.405-4.741-1.046-6.898-1.914l-6.746-2.79c-2.474-1.039-5.349-1.643-8.365-1.643-0.155 0-0.31 0.002-0.464 0.005-0.123-0.005-0.295-0.007-0.468-0.007-2.88 0-5.6 0.683-8.008 1.897-2.233 1.212-4.249 2.639-6.070 4.279l-5.911 5.3c-2.275 1.969-5.024 3.456-8.049 4.268-3.113 1.614-6.637 2.543-10.378 2.543-2.191 0-4.307-0.319-6.306-0.912-4.583-2.084-8.646-4.836-12.15-8.169-2.457-2.576-5.134-4.929-8.005-7.033-0.901-0.693-1.816-1.066-2.815-1.141-2.2 1.102-4.080 2.328-5.81 3.732l-4.856 3.231c-1.609 1.28-3.021 2.692-4.26 4.247-3.342 2.974-7.574 4.911-12.239 5.371-1.261 0.245-2.606 0.381-3.984 0.381-4.106 0-7.93-1.209-11.136-3.289-4.56-2.831-8.585-6.009-12.217-9.586-2.89-2.727-6.602-4.63-10.728-5.3-1.468-0.417-3.019-0.647-4.624-0.647s-3.156 0.231-4.621 0.661l-9.919 3.043c-2.813 0.897-6.143 1.617-9.569 2.023-0.688 0.079-1.182 0.109-1.684 0.109-6.673 0-12.083-5.41-12.083-12.083 0-1.348 0.221-2.645 0.628-3.856 1.994-4.88 5.486-8.899 9.901-11.528zM711.066 394.547c-2.396 16.799-7.207 31.979-14.116 45.936-6.105 12.169-13.748 23.411-22.683 33.482-7.906 8.897-16.198 17.189-24.953 24.971q-15.253 12.552-26.517 23.611t-19.046 20.48c-5.262 5.502-10.292 11.376-14.99 17.518l-116.492 0.504q-6.758-8.806-15.36-18.637c-5.854-6.938-11.742-13.215-17.941-19.173q-10.936-10.728-24.248-22.401c-10.539-9.156-19.942-19.079-28.32-29.84-17.829-22.951-29.926-50.443-34.241-80.449-1.005-7.057-1.517-14.144-1.517-21.35 0-9.868 0.96-19.512 2.792-28.843 3.208-16.26 9.109-31.565 17.219-45.421 9.010-15.28 20.604-28.831 34.186-40.062 15.398-12.771 33.059-22.978 52.28-29.924 21.693-7.8 45.319-12.087 69.946-12.087 1.184 0 2.365 0.010 3.544 0.030 1.050-0.026 2.498-0.039 3.948-0.039 23.804 0 46.766 3.607 68.369 10.304 18.994 5.847 36.96 14.927 52.958 26.551 14.043 10.497 26.138 23.767 35.38 38.962 8.873 14.629 15.227 30.998 18.437 48.467 1.97 10.619 3.019 21.815 3.019 33.256 0 8.663-0.602 17.185-1.765 25.528zM624.026 290.099c-3.484-2.318-7.765-3.699-12.368-3.699-0.26 0-0.519 0.004-0.777 0.013l-55.873-0.001v-15.974c-0.138-5.445-2.38-10.342-5.94-13.928-3.246-3.734-8.006-6.082-13.314-6.082-0.793 0-1.574 0.052-2.34 0.154-0.264-0.026-0.678-0.035-1.095-0.035-5.492 0-10.607 1.613-14.897 4.391-4.285 3.493-7.069 8.885-7.069 14.929 0 0.201 0.003 0.401 0.009 0.6l-0.001 16.355h-54.067c-0.161-0.005-0.351-0.007-0.542-0.007-4.756 0-9.134 1.621-12.611 4.342-2.652 2.085-4.369 5.346-4.369 9.008 0 0.567 0.041 1.124 0.121 1.669-0.013 0.081-0.015 0.25-0.015 0.419 0 4.402 1.984 8.34 5.106 10.97 3.2 2.696 7.341 4.324 11.862 4.324 0.157 0 0.314-0.002 0.47-0.006h54.044v28.058h-54.067c-0.253-0.013-0.55-0.021-0.848-0.021-4.596 0-8.771 1.802-11.856 4.738-2.896 2.79-4.7 6.71-4.703 11.052 0.126 4.653 2.059 8.831 5.119 11.878 2.982 3.398 7.332 5.531 12.181 5.531 0.038 0 0.076 0 0.113 0h54.061v16.794q-14.336 14.336-26.214 27.034l-19.046 20.48-11.878 11.059c-2.771 4.109-4.953 8.89-6.278 14.015-0.536 1.817-0.804 3.537-0.804 5.32 0 4.459 1.677 8.527 4.434 11.607 2.771 3.070 6.785 5.001 11.251 5.001 2.067 0 4.038-0.414 5.833-1.163 6.362-2.062 11.953-5.206 16.771-9.243q3.199-3.828 10.981-11.815l38.298-38.298 24.781 23.142 19.046 17.203 13.517 11.469c3.958 4.334 9.498 7.165 15.7 7.574 0.146 0.005 0.237 0.006 0.327 0.006 5.766 0 10.877-2.803 14.045-7.121q10.479-11.927-7.953-27.901-4.71-3.891-14.336-13.926l-19.046-20.48q-11.059-11.878-24.781-24.781v-15.155h51.814c0.613 0.060 1.325 0.094 2.045 0.094 5.475 0 10.489-1.971 14.372-5.242 3.060-2.843 5.012-6.907 5.086-11.428 0.002-0.101 0.003-0.205 0.003-0.31 0-4.638-1.793-8.857-4.723-12.002-3.283-2.875-7.625-4.635-12.379-4.635-1.269 0-2.508 0.125-3.706 0.364l-51.694-0.020v-27.034h50.995q22.323 0 22.323-16.794c0.158-0.713 0.248-1.532 0.248-2.372 0-4.072-2.122-7.649-5.321-9.684z" />
<glyph unicode="&#xe918;" glyph-name="examination" d="M531.251-41.267c-265.804 0-481.28 215.476-481.28 481.28s215.476 481.28 481.28 481.28c265.804 0 481.28-215.476 481.28-481.28-0.349-265.663-215.617-480.931-481.246-481.28zM531.251 900.813c-254.493 0-460.8-206.307-460.8-460.8s206.307-460.8 460.8-460.8c254.493 0 460.8 206.307 460.8 460.8-0.349 254.352-206.448 460.451-460.766 460.8zM450.56 427.52c-1.843-2.253-9.011-10.24-10.445-12.288-4.589-6.882-7.324-15.341-7.324-24.44 0-3.608 0.43-7.116 1.242-10.475 4.105-9.141 13.387-15.614 24.18-15.614 0.983 0 1.954 0.054 2.909 0.158 22.82-2.263 45.962-0.010 69.104-0.010s45.056 0 67.584 0c1.276-0.201 2.747-0.316 4.245-0.316 11.334 0 21.131 6.576 25.786 16.121 1.949 4.099 3.043 8.708 3.043 13.574 0 9.176-3.893 17.442-10.118 23.238l-10.464 10.053c-3.648 3.172-5.942 7.821-5.942 13.005s2.293 9.833 5.921 12.987c6.969 7.801 13.692 16.281 19.911 25.141 11.809 18.261 18.478 39.489 18.478 62.274 0 36.18-16.813 68.434-43.053 89.373-20.008 16.153-45.456 25.823-73.163 25.823-31.828 0-60.676-12.76-81.707-33.443-45.040-45.040-37.872-119.178 2.269-169.559 2.679-3.1 4.312-7.17 4.312-11.621 0-5.65-2.63-10.686-6.733-13.951l-0.036-0.028zM719.462 306.893c0.339 1.726 0.534 3.71 0.534 5.739 0 17.192-13.937 31.13-31.13 31.13-1.271 0-2.523-0.076-3.754-0.224q-154.885 0.015-309.714 0.015c-1.296 0.198-2.791 0.311-4.313 0.311-16.627 0-30.106-13.479-30.106-30.106 0-1.774 0.153-3.511 0.448-5.201-0.026-10.674-0.026-27.878-0.026-40.78h379.085v38.707zM362.496 224.973h335.872v33.382h-335.053v-34.406z" />
<glyph unicode="&#xe919;" glyph-name="security" d="M507.29-19.763c-265.804 0-481.28 215.476-481.28 481.28s215.476 481.28 481.28 481.28c265.804 0 481.28-215.476 481.28-481.28-0.349-265.663-215.617-480.931-481.246-481.28zM507.29 922.317c-254.493 0-460.8-206.307-460.8-460.8s206.307-460.8 460.8-460.8c254.493 0 460.8 206.307 460.8 460.8-0.349 254.352-206.448 460.451-460.766 460.8zM647.373 672.256h-280.371c-0.061 0-0.133 0.001-0.205 0.001-15.609 0-28.262-12.654-28.262-28.262 0 0 0-0.001 0-0.001v-364.954c0.116-15.521 12.725-28.058 28.262-28.058 0.072 0 0.144 0 0.217 0.001h280.36c0.061 0 0.133-0.001 0.206-0.001 15.537 0 28.146 12.537 28.262 28.047v364.965c0 0 0 0 0 0.001 0 15.609-12.654 28.262-28.262 28.262-0.072 0-0.144 0-0.216-0.001zM419.635 294.195c-13.937 0.116-25.19 11.441-25.19 25.394 0 14.025 11.37 25.395 25.395 25.395s25.395-11.369 25.395-25.394c0 0 0-0.001 0-0.001 0-14.025-11.37-25.395-25.395-25.395-0.072 0-0.144 0-0.216 0.001zM419.635 381.44c-14.025 0-25.394 11.37-25.394 25.395s11.37 25.395 25.395 25.395c13.953 0 25.278-11.253 25.394-25.179 0-14.036-11.37-25.406-25.395-25.406s-25.395 11.37-25.395 25.395c0 14.025 11.37 25.395 25.395 25.395s25.395-11.37 25.395-25.395c0-14.025-11.37-25.395-25.395-25.395zM419.635 468.685c-13.937 0.116-25.19 11.441-25.19 25.394 0 14.025 11.37 25.395 25.395 25.395s25.395-11.369 25.395-25.394c0.001-0.061 0.001-0.133 0.001-0.206 0-14.025-11.37-25.395-25.395-25.395-0.072 0-0.145 0-0.217 0.001zM507.494 294.195c-0.122-0.002-0.266-0.003-0.41-0.003-14.025 0-25.395 11.37-25.395 25.395s11.37 25.395 25.395 25.395c14.024 0 25.393-11.368 25.395-25.392 0-0.001 0-0.002 0-0.003 0-13.881-11.138-25.161-24.964-25.392zM507.494 381.44c-0.122-0.002-0.265-0.003-0.409-0.003-14.025 0-25.395 11.37-25.395 25.395s11.37 25.395 25.395 25.395c13.952 0 25.277-11.252 25.394-25.176 0-0.012 0-0.013 0-0.014 0-13.881-11.138-25.161-24.964-25.392zM507.494 468.685c-0.122-0.002-0.265-0.003-0.409-0.003-14.025 0-25.395 11.37-25.395 25.395s11.37 25.395 25.395 25.395c13.952 0 25.277-11.252 25.394-25.176 0.002-0.134 0.003-0.279 0.003-0.424 0-13.883-11.139-25.163-24.968-25.392zM620.954 319.59c0-14.138-11.462-25.6-25.6-25.6s-25.6 11.462-25.6 25.6v87.45c0 14.138 11.462 25.6 25.6 25.6s25.6-11.462 25.6-25.6v-87.245zM595.354 468.48c-13.937 0.116-25.19 11.441-25.19 25.394 0 14.025 11.37 25.395 25.395 25.395s25.395-11.369 25.395-25.394c-0.116-14.050-11.533-25.395-25.599-25.395 0 0-0.001 0-0.001 0zM628.326 568.627c0-7.239-5.868-13.107-13.107-13.107 0 0 0 0 0 0h-214.63c0 0 0 0 0 0-7.239 0-13.107 5.868-13.107 13.107 0 0 0 0 0 0v40.96c0 7.239 5.868 13.107 13.107 13.107 0 0 0 0 0 0h213.811c0 0 0 0 0 0 7.239 0 13.107-5.868 13.107-13.107 0 0 0 0 0 0v-40.96z" />
<glyph unicode="&#xe91a;" glyph-name="allowance" d="M505.856-34.714c-265.804 0-481.28 215.476-481.28 481.28s215.476 481.28 481.28 481.28c265.804 0 481.28-215.476 481.28-481.28-0.349-265.663-215.617-480.931-481.246-481.28zM505.856 907.366c-254.493 0-460.8-206.307-460.8-460.8s206.307-460.8 460.8-460.8c254.493 0 460.8 206.307 460.8 460.8-0.349 254.352-206.448 460.451-460.766 460.8zM724.787 491.827c9.513 5.185 15.859 15.112 15.859 26.521 0 1.481-0.107 2.937-0.314 4.361l0.019 75.819c0 0.001 0 0.001 0 0.002 0 24.4-19.664 44.208-44.010 44.44h-380.54c-24.544 0-44.442-19.897-44.442-44.442v-75.981c-0.224-1.365-0.352-2.937-0.352-4.54 0-11.65 6.755-21.722 16.561-26.513 18.959-7.326 32.462-24.321 34.562-44.699 0.083-1.103 0.119-2.123 0.119-3.151 0-20.149-13.989-37.030-32.784-41.462l-1.722-0.057c-9.926-6.482-16.393-17.539-16.393-30.105 0-0.288 0.003-0.575 0.010-0.862l-0.001-75.938c0-24.544 19.897-44.442 44.442-44.442 0 0 0 0 0 0h380.518c0 0 0 0 0 0 24.544 0 44.442 19.897 44.442 44.442 0 0 0 0 0 0v75.366c0.106 0.975 0.166 2.106 0.166 3.25 0 11.913-6.52 22.303-16.187 27.796-26.372 13.599-34.769 24.454-34.769 44.934s7.373 30.72 34.816 45.261zM588.186 452.915c0-7.013-5.685-12.698-12.698-12.698 0 0 0 0 0 0h-50.586v-12.698h50.586c0 0 0 0 0 0 7.013 0 12.698-5.685 12.698-12.698 0 0 0 0 0 0v-12.698c0-7.013-5.685-12.698-12.698-12.698 0 0 0 0 0 0h-50.586v-37.888c0-7.013-5.685-12.698-12.698-12.698 0 0 0 0 0 0h-12.698c0 0 0 0 0 0-7.013 0-12.698 5.685-12.698 12.698 0 0 0 0 0 0v37.888h-50.79c0 0 0 0 0 0-7.013 0-12.698 5.685-12.698 12.698 0 0 0 0 0 0v12.698c0 7.013 5.685 12.698 12.698 12.698 0 0 0 0 0 0h50.586v12.698h-50.586c0 0 0 0 0 0-7.013 0-12.698 5.685-12.698 12.698 0 0 0 0 0 0v12.698c0 7.013 5.685 12.698 12.698 12.698 0 0 0 0 0 0h33.382l-42.189 45.261c-2.108 2.318-3.399 5.411-3.399 8.806s1.291 6.489 3.409 8.817l8.182 9.205c2.235 2.295 5.354 3.718 8.806 3.718s6.572-1.423 8.804-3.715l52.841-57.347 52.838 57.344c2.235 2.295 5.354 3.718 8.806 3.718s6.572-1.423 8.804-3.715l8.195-8.809c2.067-2.335 3.329-5.423 3.329-8.806s-1.262-6.472-3.341-8.82l-40.948-45.042h31.949c0 0 0 0 0 0 7.013 0 12.698-5.685 12.698-12.698 0 0 0 0 0 0v-12.698z" />
<glyph unicode="&#xe91b;" glyph-name="archiving" d="M512-33.69c-265.804 0-481.28 215.476-481.28 481.28s215.476 481.28 481.28 481.28c265.66 0 481.046-215.243 481.28-480.848-0.116-265.861-215.473-481.362-481.246-481.712zM512 908.39c-254.493 0-460.8-206.307-460.8-460.8s206.307-460.8 460.8-460.8c254.493 0 460.8 206.307 460.8 460.8 0 0.144 0 0.288 0 0.432-0.582 254.154-206.591 460.019-460.766 460.368zM351.437 642.56c-19.002 0-34.406-15.404-34.406-34.406v-321.126c0-19.002 15.404-34.406 34.406-34.406h321.126c19.002 0 34.406 15.404 34.406 34.406v321.126c0 19.002-15.404 34.406-34.406 34.406h-321.126zM356.966 568.627l-8.806 33.792c-0.198 0.738-0.312 1.585-0.312 2.458 0 5.395 4.346 9.775 9.728 9.83h308.844c0.032 0 0.070 0.001 0.108 0.001 5.429 0 9.83-4.401 9.83-9.83 0-0.874-0.114-1.721-0.328-2.527l-8.791-33.519c-1.507-5.698-6.617-9.83-12.691-9.83-0.002 0-0.005 0-0.007 0h-285.9c-5.606 0.43-10.196 4.327-11.652 9.533zM442.368 391.68h28.672v83.763h81.92v-83.558h28.672l-69.632-69.632z" />
<glyph unicode="&#xe91c;" glyph-name="decrease" d="M507.904-31.232c-265.804 0-481.28 215.476-481.28 481.28s215.476 481.28 481.28 481.28c265.804 0 481.28-215.476 481.28-481.28-0.349-265.663-215.617-480.931-481.246-481.28zM507.904 910.848c-254.493 0-460.8-206.307-460.8-460.8s206.307-460.8 460.8-460.8c254.493 0 460.8 206.307 460.8 460.8-0.349 254.352-206.448 460.451-460.766 460.8zM362.086 646.246c11.311 0 20.48-9.169 20.48-20.48v-351.642c0-11.311-9.169-20.48-20.48-20.48s-20.48 9.169-20.48 20.48v351.642c0 11.311 9.169 20.48 20.48 20.48zM503.603 646.246c11.311 0 20.48-9.169 20.48-20.48v-351.642c0-11.311-9.169-20.48-20.48-20.48s-20.48 9.169-20.48 20.48v351.642c0 11.311 9.169 20.48 20.48 20.48zM653.722 646.246c11.311 0 20.48-9.169 20.48-20.48v-351.642c0-11.311-9.169-20.48-20.48-20.48s-20.48 9.169-20.48 20.48v351.642c0 11.311 9.169 20.48 20.48 20.48zM419.635 546.918c0-31.783-25.765-57.549-57.549-57.549s-57.549 25.765-57.549 57.549c0 31.783 25.765 57.549 57.549 57.549s57.549-25.765 57.549-57.549zM561.152 372.019c0-31.783-25.765-57.549-57.549-57.549s-57.549 25.765-57.549 57.549c0 31.783 25.765 57.549 57.549 57.549s57.549-25.765 57.549-57.549zM711.27 485.478c0-31.783-25.765-57.549-57.549-57.549s-57.549 25.765-57.549 57.549c0 31.783 25.765 57.549 57.549 57.549s57.549-25.765 57.549-57.549z" />
<glyph unicode="&#xe91d;" glyph-name="record" d="M508.723-37.786c-265.804 0-481.28 215.476-481.28 481.28s215.476 481.28 481.28 481.28c265.804 0 481.28-215.476 481.28-481.28-0.349-265.663-215.617-480.931-481.246-481.28zM508.723 904.294c-254.493 0-460.8-206.307-460.8-460.8s206.307-460.8 460.8-460.8c254.493 0 460.8 206.307 460.8 460.8-0.349 254.352-206.448 460.451-460.766 460.8zM653.517 647.885h-289.587c0 0 0 0 0 0-14.478 0-26.214-11.737-26.214-26.214v-356.352c0-14.478 11.737-26.214 26.214-26.214 0 0 0 0 0 0h289.587c14.478 0 26.214 11.737 26.214 26.214 0 0 0 0 0 0v356.352c0 14.478-11.737 26.214-26.214 26.214zM507.699 443.085c-11.311 0-20.48 9.169-20.48 20.48s9.169 20.48 20.48 20.48c11.311 0 20.48-9.169 20.48-20.48-0.23-11.133-9.309-20.070-20.476-20.070-0.001 0-0.003 0-0.004 0zM507.699 503.091c-76.8 0-139.059 36.454-139.059 81.92h23.142c0-37.478 51.814-67.994 115.917-67.994s115.917 30.515 115.917 67.994h23.142c0-45.056-62.259-81.51-139.059-81.51z" />
<glyph unicode="&#xe91e;" glyph-name="tax" d="M525.107-26.522c-265.804 0-481.28 215.476-481.28 481.28s215.476 481.28 481.28 481.28c265.804 0 481.28-215.476 481.28-481.28-0.349-265.663-215.617-480.931-481.246-481.28zM525.107 915.558c-254.493 0-460.8-206.307-460.8-460.8s206.307-460.8 460.8-460.8c254.493 0 460.8 206.307 460.8 460.8-0.349 254.352-206.448 460.451-460.766 460.8zM752.435 284.16c0-0.078 0.001-0.17 0.001-0.262 0-6.174-1.204-12.068-3.389-17.458-4.279-10.339-12.479-18.673-22.751-23.132-5.358-2.31-11.272-3.591-17.486-3.591-0.143 0-0.286 0.001-0.428 0.002h-363.703c-6.153 0.117-11.978 1.385-17.313 3.597-5.47 2.272-10.427 5.521-14.657 9.53-4.198 3.969-7.644 8.725-10.101 14.033-2.78 5.207-4.484 11.010-4.823 17.176l-0.005 245.865c-0.004 0.213-0.006 0.464-0.006 0.716 0 12.203 5.107 23.214 13.3 31.011 8.070 8.118 19.22 13.132 31.541 13.132 0.294 0 0.587-0.003 0.879-0.009l363.476 0.001c0.249 0.005 0.542 0.008 0.835 0.008 12.321 0 23.471-5.014 31.521-13.113 8.094-7.801 13.119-18.732 13.119-30.838 0-0.319-0.003-0.638-0.010-0.956l0.001-66.922h-113.664c-0.32 0.008-0.697 0.013-1.076 0.013-12.172 0-23.212-4.849-31.292-12.72-7.734-7.612-12.532-18.206-12.532-29.92 0-0.71 0.018-1.416 0.052-2.118 0.165-8.209 2.188-16.005 5.667-22.945 3.091-5.843 7.589-10.93 13.037-14.755 6.924-4.511 15.233-7.141 24.156-7.141 0.987 0 1.967 0.032 2.939 0.096l113.532-0.007v-89.293zM684.442 596.89h-227.533l50.995 26.624 40.96 21.709 32.154 16.794c8.957 5.401 19.772 8.598 31.333 8.602 8.462-0.268 16.448-1.973 23.83-4.878 6.955-3.51 13.27-8.32 18.516-14.115zM616.243 418.304c-0.009 0.221-0.013 0.48-0.013 0.741 0 5.933 2.523 11.276 6.554 15.017 4.191 3.985 9.855 6.429 16.090 6.429s11.899-2.444 16.087-6.426c4.034-3.743 6.557-9.086 6.557-15.019 0-0.261-0.005-0.52-0.015-0.778 0.002-0.039 0.003-0.13 0.003-0.221 0-6.146-2.507-11.706-6.553-15.715-4.116-4.117-9.8-6.662-16.079-6.662s-11.963 2.545-16.077 6.661c-4.049 4.010-6.555 9.571-6.555 15.717 0 0.091 0.001 0.181 0.002 0.272v-0.014z" />
<glyph unicode="&#xe91f;" glyph-name="work" d="M509.747-33.28c-265.804 0-481.28 215.476-481.28 481.28s215.476 481.28 481.28 481.28c265.804 0 481.28-215.476 481.28-481.28-0.349-265.663-215.617-480.931-481.246-481.28zM509.747 908.8c-254.493 0-460.8-206.307-460.8-460.8s206.307-460.8 460.8-460.8c254.493 0 460.8 206.307 460.8 460.8-0.349 254.352-206.448 460.451-460.766 460.8zM668.262 602.214h-30.106v38.502c0 8.031-6.51 14.541-14.541 14.541 0 0 0 0 0 0h-1.024c0 0 0 0 0 0-8.031 0-14.541-6.51-14.541-14.541 0 0 0 0 0 0v-38.502h-195.379v38.502c0 8.031-6.51 14.541-14.541 14.541 0 0 0 0 0 0h-0.819c0 0 0 0 0 0-8.031 0-14.541-6.51-14.541-14.541 0 0 0 0 0 0v-38.502h-31.539c-26.58 0-48.128-21.548-48.128-48.128 0 0 0 0 0 0v-265.216c0.116-26.534 21.594-48.012 48.117-48.128h317.041c0.061 0 0.133 0 0.205 0 26.622 0 48.216 21.523 48.332 48.117v265.227c-0.116 26.534-21.594 48.012-48.117 48.128h-0.011zM627.302 417.894l-132.096-132.096c-3.633-3.605-8.611-5.858-14.116-5.939-0.045 0-0.079 0-0.113 0-5.235 0-9.977 2.112-13.42 5.531l-71.474 71.679c-4.166 3.517-6.795 8.743-6.795 14.583 0 10.519 8.527 19.046 19.046 19.046 0.445 0 0.887-0.015 1.324-0.045-0.005 0.004 0.059 0.004 0.123 0.004 5.209 0 9.924-2.114 13.335-5.53l58.163-58.163 118.784 118.989c3.459 3.459 8.238 5.599 13.517 5.599 10.557 0 19.116-8.558 19.116-19.116 0-5.279-2.14-10.058-5.599-13.517v0zM682.394 495.104h-344.474v67.584h344.269v-66.56z" />
<glyph unicode="&#xe920;" glyph-name="change" d="M533.504-41.882c-265.804 0-481.28 215.476-481.28 481.28s215.476 481.28 481.28 481.28c265.804 0 481.28-215.476 481.28-481.28-0.349-265.663-215.617-480.931-481.246-481.28zM533.504 900.198c-254.493 0-460.8-206.307-460.8-460.8s206.307-460.8 460.8-460.8c254.493 0 460.8 206.307 460.8 460.8-0.349 254.352-206.448 460.451-460.766 460.8zM737.28 249.344h-407.962c-11.311 0-20.48 9.169-20.48 20.48v338.534c0 11.65 9.444 21.094 21.094 21.094s21.094-9.444 21.094-21.094v-316.826h386.253c11.65 0 21.094-9.444 21.094-21.094s-9.444-21.094-21.094-21.094zM688.538 312.832h-42.394c-11.311 0-20.48 9.169-20.48 20.48v148.275c0 11.311 9.169 20.48 20.48 20.48h42.189c11.311 0 20.48-9.169 20.48-20.48v-147.866c0-11.311-9.169-20.48-20.48-20.48zM568.73 313.242h-42.189c-11.311 0-20.48 9.169-20.48 20.48v232.448c0 11.311 9.169 20.48 20.48 20.48h42.189c11.311 0 20.48-9.169 20.48-20.48v-232.243c0-11.311-9.169-20.48-20.48-20.48zM449.126 313.446h-42.189c-11.311 0-20.48 9.169-20.48 20.48v42.189c0 11.311 9.169 20.48 20.48 20.48h42.189c11.311 0 20.48-9.169 20.48-20.48v-42.189c0-11.311-9.169-20.48-20.48-20.48z" />
<glyph unicode="&#xe921;" glyph-name="employeeadd" d="M522.445-36.762c-0.061 0-0.133 0-0.205 0-265.804 0-481.28 215.476-481.28 481.28s215.476 481.28 481.28 481.28c265.804 0 481.28-215.476 481.28-481.28-0.349-265.591-215.5-480.814-481.031-481.28zM522.445 905.318c-0.061 0-0.133 0-0.205 0-254.493 0-460.8-206.307-460.8-460.8s206.307-460.8 460.8-460.8c254.493 0 460.8 206.307 460.8 460.8-0.349 254.28-206.331 460.334-460.551 460.8zM737.28 280.678h-133.12c-5.655 0-10.24 4.585-10.24 10.24s4.585 10.24 10.24 10.24h133.12c5.655 0 10.24-4.585 10.24-10.24s-4.585-10.24-10.24-10.24zM670.72 214.118c0 0 0 0 0 0-5.542 0-10.035 4.493-10.035 10.035 0 0 0 0 0 0v133.12c0 5.655 4.585 10.24 10.24 10.24s10.24-4.585 10.24-10.24v-133.12c0-0.016 0-0.034 0-0.052 0-5.542-4.493-10.035-10.035-10.035-0.361 0-0.717 0.019-1.068 0.056zM532.48 428.544c-70.579 0-127.795 57.216-127.795 127.795s57.216 127.795 127.795 127.795c70.579 0 127.795-57.216 127.795-127.795s-57.216-127.795-127.795-127.795zM573.44 290.509c0.062 49.446 35.731 90.544 82.74 99.031-34.249 23.826-77.286 37.988-123.631 37.988-0.672 0-1.344-0.003-2.015-0.009-0.134 0.002-0.413 0.002-0.693 0.002-84.487 0-157.572-48.816-192.589-119.781-4.8-10.764-7.467-21.82-7.928-33.443 1.428-42.566 24.366-68.166 63.687-70.419h228.352c-28.946 17.994-47.93 49.623-47.93 85.686 0 0.404 0.002 0.808 0.007 1.211z" />
<glyph unicode="&#xe922;" glyph-name="hr" d="M512-26.522c-265.804 0-481.28 215.476-481.28 481.28s215.476 481.28 481.28 481.28c265.804 0 481.28-215.476 481.28-481.28-0.349-265.663-215.617-480.931-481.246-481.28zM512 915.558c-254.493 0-460.8-206.307-460.8-460.8s206.307-460.8 460.8-460.8c254.493 0 460.8 206.307 460.8 460.8-0.349 254.352-206.448 460.451-460.766 460.8zM653.722 648.294q12.902-12.083 20.48-20.48c4.144-4.15 8.033-8.559 11.64-13.198 2.439-2.984 4.186-6.119 5.302-9.539 0.182-1.216 0.254-2.39 0.254-3.581s-0.072-2.365-0.211-3.518l0.014-6.619h-70.246c-3.317 0.008-6.301 1.423-8.39 3.679-2.358 2.406-4.342 5.175-5.861 8.217-1.473 2.581-2.722 5.358-3.681 8.267-0.743 2.672-1.183 5.405-1.316 8.219l-0.003 60.706h1.434c2.859-0.027 5.603-0.474 8.187-1.283 3.39-1.104 6.51-2.633 9.358-4.538q5.187-3.19 13.175-9.539t20.48-16.794v0zM571.802 620.442c0-0.027 0-0.058 0-0.090 0-7.263 1.047-14.282 2.999-20.913 1.977-6.816 5.13-13.223 9.212-18.917 4.124-5.805 9.451-10.74 15.611-14.427 6.415-3.743 13.841-5.876 21.766-5.876 0.351 0 0.7 0.004 1.049 0.012l69.785-0.001v-270.95c0.012-0.434 0.019-0.945 0.019-1.457 0-8.784-2.048-17.090-5.693-24.466-3.558-7.107-8.516-13.374-14.515-18.448-5.927-5.014-12.705-9.093-20.079-11.986-6.907-2.834-14.359-4.408-22.172-4.469h-236.363c-7.519 0.168-14.547 2.119-20.724 5.445-7.596 3.719-14.339 8.368-20.294 13.86-6.070 5.784-11.255 12.537-15.296 20.001-4.158 7.053-6.511 15.031-6.559 23.554v327.694c0.152 7.44 1.796 14.458 4.642 20.82 3.104 7.518 7.309 14.287 12.438 20.236 5.042 5.826 10.986 10.857 17.613 14.874 6.169 3.786 13.218 5.976 20.768 6.123l184.361 0.001v-60.211zM602.112 341.504c0.093-0.001 0.203-0.002 0.313-0.002 7.674 0 14.716 2.705 20.224 7.215 5.352 3.927 8.852 10.226 8.954 17.347 0.004 0.17 0.007 0.35 0.007 0.531 0 6.858-3.371 12.929-8.547 16.646-5.544 4.384-12.56 7.007-20.188 7.007-0.124 0-0.248-0.001-0.372-0.002h-181.229c-0.105 0.001-0.229 0.002-0.353 0.002-7.629 0-14.645-2.623-20.195-7.017-5.169-3.707-8.54-9.778-8.54-16.636 0-0.181 0.002-0.362 0.007-0.542-0.001 0.026-0.001 0.026-0.001 0.025 0-7.072 3.35-13.362 8.55-17.369 5.503-4.502 12.545-7.207 20.218-7.207 0.11 0 0.22 0.001 0.33 0.002h180.412zM632.013 470.323c0 0 0 0.001 0 0.001 0 7.072-3.35 13.362-8.55 17.369-5.503 4.502-12.545 7.207-20.218 7.207-0.11 0-0.22-0.001-0.33-0.002h-181.641c-0.093 0.001-0.203 0.002-0.313 0.002-7.674 0-14.716-2.705-20.224-7.215-5.195-4-8.545-10.289-8.545-17.362 0 0 0-0.001 0-0.001-0.004-0.153-0.006-0.334-0.006-0.515 0-6.858 3.371-12.929 8.547-16.646 5.544-4.384 12.56-7.007 20.188-7.007 0.124 0 0.248 0.001 0.372 0.002h180.41c0.105-0.001 0.229-0.002 0.353-0.002 7.629 0 14.645 2.623 20.195 7.017 5.569 3.605 9.267 9.835 9.353 16.934z" />
<glyph unicode="&#xe923;" glyph-name="organization" d="M519.168-29.798c-265.804 0-481.28 215.476-481.28 481.28s215.476 481.28 481.28 481.28c265.804 0 481.28-215.476 481.28-481.28-0.349-265.663-215.617-480.931-481.246-481.28zM519.168 912.282c-254.493 0-460.8-206.307-460.8-460.8s206.307-460.8 460.8-460.8c254.493 0 460.8 206.307 460.8 460.8-0.349 254.352-206.448 460.451-460.766 460.8zM352.461 470.938h151.962c2.262 0 4.096-1.834 4.096-4.096v-81.92c0-5.655 4.585-10.24 10.24-10.24v0c5.655 0 10.24 4.585 10.24 10.24v81.92c0 2.262 1.834 4.096 4.096 4.096h154.829c2.036 0 3.686-1.65 3.686-3.686v-91.546c0-5.655 4.585-10.24 10.24-10.24v0c5.655 0 10.24 4.585 10.24 10.24v98.714c0 9.275-7.519 16.794-16.794 16.794 0 0 0 0 0 0h-162.816c-2.262 0-4.096 1.834-4.096 4.096v27.443c0 5.655-4.585 10.24-10.24 10.24v0c-5.655 0-10.24-4.585-10.24-10.24v-27.443c0-2.262-1.834-4.096-4.096-4.096h-161.587c0 0 0 0 0 0-9.162 0-16.589-7.427-16.589-16.589v-98.918c0-5.655 4.585-10.24 10.24-10.24v0c5.655 0 10.24 4.585 10.24 10.24v89.293c0 0.004 0 0.009 0 0.014 0 3.28 2.659 5.939 5.939 5.939 0.144 0 0.287-0.005 0.429-0.015zM306.79 351.949h60.211c19.341 0 35.021-15.679 35.021-35.021v-60.211c0-19.341-15.679-35.021-35.021-35.021h-60.211c-19.341 0-35.021 15.679-35.021 35.021v60.211c0 19.341 15.679 35.021 35.021 35.021zM489.062 351.949h60.211c19.341 0 35.021-15.679 35.021-35.021v-60.211c0-19.341-15.679-35.021-35.021-35.021h-60.211c-19.341 0-35.021 15.679-35.021 35.021v60.211c0 19.341 15.679 35.021 35.021 35.021zM671.539 351.949h60.211c19.341 0 35.021-15.679 35.021-35.021v-60.211c0-19.341-15.679-35.021-35.021-35.021h-60.211c-19.341 0-35.021 15.679-35.021 35.021v60.211c0 19.341 15.679 35.021 35.021 35.021zM463.053 681.062h109.158c24.997 0 45.261-20.264 45.261-45.261v-46.080c0-24.997-20.264-45.261-45.261-45.261h-109.158c-24.997 0-45.261 20.264-45.261 45.261v46.080c0 24.997 20.264 45.261 45.261 45.261z" />
<glyph unicode="&#xe924;" glyph-name="wages" d="M522.24-19.558c-265.804 0-481.28 215.476-481.28 481.28s215.476 481.28 481.28 481.28c265.804 0 481.28-215.476 481.28-481.28-0.349-265.663-215.617-480.931-481.246-481.28zM522.24 922.522c-254.493 0-460.8-206.307-460.8-460.8s206.307-460.8 460.8-460.8c254.493 0 460.8 206.307 460.8 460.8-0.349 254.352-206.448 460.451-460.766 460.8zM757.76 529.92v60.416c0 11.876-9.628 21.504-21.504 21.504h-428.032c0 0 0 0 0 0-11.876 0-21.504-9.628-21.504-21.504 0 0 0 0 0 0v-60.416h471.040zM286.72 468.48v-142.336c0-11.876 9.628-21.504 21.504-21.504 0 0 0 0 0 0h428.032c11.876 0 21.504 9.628 21.504 21.504 0 0 0 0 0 0v142.336h-471.040zM348.16 375.706c0-5.655-4.585-10.24-10.24-10.24s-10.24 4.585-10.24 10.24v47.514c0 5.655 4.585 10.24 10.24 10.24s10.24-4.585 10.24-10.24v-47.514zM409.6 378.982c-2.19-7.661-9.13-13.175-17.358-13.175-1.103 0-2.183 0.099-3.232 0.289-0.889-0.218-2.038-0.333-3.214-0.333-8.314 0-15.283 5.761-17.132 13.509l-0.024 41.080c1.733 7.692 8.507 13.351 16.602 13.351 1.375 0 2.713-0.163 3.994-0.472 0.823 0.197 1.903 0.296 3.006 0.296 8.228 0 15.168-5.514 17.327-13.048l0.031-41.087zM450.56 375.706c0-5.655-4.585-10.24-10.24-10.24s-10.24 4.585-10.24 10.24v47.514c0 5.655 4.585 10.24 10.24 10.24s10.24-4.585 10.24-10.24v-47.514z" />
<glyph unicode="&#xe925;" glyph-name="add3" d="M883.917 717.722c0 0 0 0 0 0 0 43.32-35.118 78.438-78.438 78.438-0.072 0-0.144 0-0.216 0h-539.022c-43.32 0-78.438-35.118-78.438-78.438v-539.443c0-43.32 35.118-78.438 78.438-78.438h539.034c43.32 0 78.438 35.118 78.438 78.438v539.443zM842.957 185.242c-0.115-24.426-19.827-44.211-44.215-44.441h-525.539c-24.658 0-44.646 19.989-44.646 44.646v525.107c0 24.658 19.989 44.646 44.646 44.646h525.517c24.658 0 44.646-19.989 44.646-44.646v-525.107zM692.429 423.014h-313.549c-13.799 0-24.986 11.186-24.986 24.986v0.205c0 13.799 11.186 24.986 24.986 24.986h313.549c13.799 0 24.986-11.186 24.986-24.986v-0.205c0-13.799-11.186-24.986-24.986-24.986zM510.771 291.123v313.549c0 13.799 11.186 24.986 24.986 24.986h0.205c13.799 0 24.986-11.186 24.986-24.986v-313.549c0-13.799-11.186-24.986-24.986-24.986h-0.205c-13.799 0-24.986 11.186-24.986 24.986z" />
<glyph unicode="&#xe926;" glyph-name="add2" d="M514.867 873.779c-235.151 0-425.779-190.628-425.779-425.779s190.628-425.779 425.779-425.779c235.151 0 425.779 190.628 425.779 425.779s-190.628 425.779-425.779 425.779zM671.334 421.581l-131.686 1.024-1.024-131.482c0-13.856-11.232-25.088-25.088-25.088s-25.088 11.232-25.088 25.088l1.024 131.686-131.686 1.024c-13.856 0-25.088 11.232-25.088 25.088s11.232 25.088 25.088 25.088l131.686-1.024 2.048 131.891c0 13.856 11.232 25.088 25.088 25.088s25.088-11.232 25.088-25.088l-1.024-131.686 131.686-1.024c13.75-0.287 24.786-11.501 24.786-25.293 0-13.972-11.326-25.298-25.298-25.298-0.18 0-0.36 0.002-0.539 0.006z" />
<glyph unicode="&#xe927;" glyph-name="date" d="M773.12 784.282h-98.304v24.576c0 13.573-11.003 24.576-24.576 24.576s-24.576-11.003-24.576-24.576v-24.576h-245.76v24.576c0 13.573-11.003 24.576-24.576 24.576s-24.576-11.003-24.576-24.576v-24.576h-98.304c0 0 0 0 0 0-54.22 0-98.187-43.896-98.304-98.088v-518.974c0.117-54.204 44.084-98.099 98.304-98.099 0 0 0 0 0 0h540.672c0 0 0 0 0 0 54.22 0 98.187 43.896 98.304 98.088v518.974c-0.117 54.204-44.084 98.099-98.304 98.099 0 0 0 0 0 0v0zM822.272 167.219c-0.116-27.058-22.078-48.947-49.152-48.947 0 0 0 0 0 0h-540.877c0 0 0 0 0 0-27.074 0-49.035 21.89-49.152 48.936v421.080h639.181v-421.069zM822.272 637.030h-639.181v49.152c0.347 26.88 22.218 48.538 49.148 48.538 0.001 0 0.003 0 0.004 0h98.304v-24.576c0-13.573 11.003-24.576 24.576-24.576s24.576 11.003 24.576 24.576v24.576h245.76v-24.576c0-13.573 11.003-24.576 24.576-24.576s24.576 11.003 24.576 24.576v24.576h98.304c0 0 0 0 0 0 27.074 0 49.035-21.89 49.152-48.936v-48.958zM674.816 363.418h49.152c0 0 0 0 0 0 27.074 0 49.035 21.89 49.152 48.936v49.163c-0.116 27.058-22.078 48.947-49.152 48.947 0 0 0 0 0 0h-49.152c0 0 0 0 0 0-27.074 0-49.035-21.89-49.152-48.936v-48.958c0.116-27.058 22.078-48.947 49.152-48.947 0 0 0 0 0 0v0zM674.816 461.517h49.152v-48.947h-49.152v48.947zM674.816 167.219h49.152c0 0 0 0 0 0 27.074 0 49.035 21.89 49.152 48.936v49.163c-0.116 27.058-22.078 48.947-49.152 48.947 0 0 0 0 0 0h-49.152c0 0 0 0 0 0-27.074 0-49.035-21.89-49.152-48.936v-48.958c0.116-27.058 22.078-48.947 49.152-48.947 0 0 0 0 0 0v0zM674.816 265.318h49.152v-48.947h-49.152v48.947zM478.003 167.219h49.152c0 0 0 0 0 0 27.074 0 49.035 21.89 49.152 48.936v49.163c-0.116 27.058-22.078 48.947-49.152 48.947 0 0 0 0 0 0h-49.152c0 0 0 0 0 0-27.074 0-49.035-21.89-49.152-48.936v-48.958c0.116-27.058 22.078-48.947 49.152-48.947 0 0 0 0 0 0v0zM478.003 265.318h49.152v-48.947h-49.152v48.947zM281.395 167.219h49.152c0 0 0 0 0 0 27.074 0 49.035 21.89 49.152 48.936v49.163c-0.116 27.058-22.078 48.947-49.152 48.947 0 0 0 0 0 0h-49.152c0 0 0 0 0 0-27.074 0-49.035-21.89-49.152-48.936v-48.958c0.116-27.058 22.078-48.947 49.152-48.947 0 0 0 0 0 0v0zM281.395 265.318h49.152v-48.947h-49.152v48.947zM281.395 363.418h49.152c0 0 0 0 0 0 27.074 0 49.035 21.89 49.152 48.936v49.163c-0.116 27.058-22.078 48.947-49.152 48.947 0 0 0 0 0 0h-49.152c0 0 0 0 0 0-27.074 0-49.035-21.89-49.152-48.936v-48.958c0.116-27.058 22.078-48.947 49.152-48.947 0 0 0 0 0 0v0zM281.395 461.517h49.152v-48.947h-49.152v48.947zM478.003 363.418h49.152c0 0 0 0 0 0 27.074 0 49.035 21.89 49.152 48.936v49.163c-0.116 27.058-22.078 48.947-49.152 48.947 0 0 0 0 0 0h-49.152c0 0 0 0 0 0-27.074 0-49.035-21.89-49.152-48.936v-48.958c0.116-27.058 22.078-48.947 49.152-48.947 0 0 0 0 0 0v0zM478.003 461.517h49.152v-48.947h-49.152v48.947z" />
<glyph unicode="&#xe928;" glyph-name="delete3" d="M883.917 717.722c0 0 0 0 0 0 0 43.32-35.118 78.438-78.438 78.438-0.072 0-0.144 0-0.216 0h-539.022c-43.32 0-78.438-35.118-78.438-78.438v-539.443c0-43.32 35.118-78.438 78.438-78.438h539.034c43.32 0 78.438 35.118 78.438 78.438v539.443zM842.957 185.242c-0.115-24.426-19.827-44.211-44.215-44.441h-525.539c-24.658 0-44.646 19.989-44.646 44.646v525.107c0 24.658 19.989 44.646 44.646 44.646h525.517c24.658 0 44.646-19.989 44.646-44.646v-525.107zM633.615 321.889l-219.886 223.524c-9.677 9.837-9.547 25.657 0.29 35.334l0.146 0.144c9.837 9.677 25.657 9.547 35.334-0.29l219.886-223.524c9.677-9.837 9.547-25.657-0.29-35.334l-0.146-0.144c-9.837-9.677-25.657-9.547-35.334 0.29zM412.104 359.153l223.524 219.886c9.837 9.677 25.657 9.547 35.334-0.29l0.144-0.146c9.677-9.837 9.547-25.657-0.29-35.334l-223.524-219.886c-9.837-9.677-25.657-9.547-35.334 0.29l-0.144 0.146c-9.677 9.837-9.547 25.657 0.29 35.334z" />
<glyph unicode="&#xe929;" glyph-name="edit2" d="M506.88-16.282c-265.804 0-481.28 215.476-481.28 481.28s215.476 481.28 481.28 481.28c265.804 0 481.28-215.476 481.28-481.28-0.349-265.663-215.617-480.931-481.246-481.28zM506.88 925.798c-254.493 0-460.8-206.307-460.8-460.8s206.307-460.8 460.8-460.8c254.493 0 460.8 206.307 460.8 460.8-0.349 254.352-206.448 460.451-460.766 460.8zM332.8 478.925h348.365c15.043 0 27.238-12.195 27.238-27.238v-7.578c0-15.043-12.195-27.238-27.238-27.238h-348.365c-15.043 0-27.238 12.195-27.238 27.238v7.578c0 15.043 12.195 27.238 27.238 27.238zM537.805 622.080v-348.365c0-15.043-12.195-27.238-27.238-27.238h-7.578c-15.043 0-27.238 12.195-27.238 27.238v348.365c0 15.043 12.195 27.238 27.238 27.238h7.578c15.043 0 27.238-12.195 27.238-27.238z" />
<glyph unicode="&#xe92a;" glyph-name="address" d="M273.613 557.978c0-116.326 113.050-230.605 217.907-466.33q39.936-61.44 81.92 0c112.845 247.398 218.726 348.16 218.726 466.33-3.482 327.68-508.518 348.16-517.734 0v0zM534.323 432.435c-74.96 1.463-135.344 61.846-136.804 136.668-0.002 0.138-0.002 0.138-0.002 0.138 0 75.597 61.225 136.894 136.795 137.011 73.344-4.474 131.541-63.452 134.759-136.709-1.515-74.525-60.71-134.435-134.501-137.101l-0.247-0.007z" />
<glyph unicode="&#xe92b;" glyph-name="annual" d="M199.68 68.301h618.291c12.781 0 23.142-10.361 23.142-23.142v-14.336c0-12.781-10.361-23.142-23.142-23.142h-618.291c-12.781 0-23.142 10.361-23.142 23.142v14.336c0 12.781 10.361 23.142 23.142 23.142zM259.686 160.051v-31.13c0-12.781 10.361-23.142 23.142-23.142 0 0 0 0 0 0h452.198c12.604 0.23 22.733 10.502 22.733 23.139 0 0.001 0 0.003 0 0.004v31.129c0 80.077-92.365 206.234-165.683 264.602-5.316 4.238-8.692 10.714-8.692 17.978 0 8.061 4.158 15.151 10.447 19.242 72.998 45.929 163.929 144.848 163.929 224.105v40.96c0 12.781-10.361 23.142-23.142 23.142 0 0 0 0 0 0h-451.789c0 0 0 0 0 0-12.781 0-23.142-10.361-23.142-23.142v-35.635c0-89.498 90.317-182.477 163.84-228.352 6.507-4.122 10.764-11.284 10.764-19.441 0-7.183-3.301-13.594-8.469-17.8-73.975-59.63-166.135-185.582-166.135-265.659zM199.68 844.698h618.291c12.781 0 23.142-10.361 23.142-23.142v-14.95c0-12.781-10.361-23.142-23.142-23.142h-618.291c-12.781 0-23.142 10.361-23.142 23.142v14.95c0 12.781 10.361 23.142 23.142 23.142z" />
<glyph unicode="&#xe92c;" glyph-name="reminder2" d="M839.68 330.035c17.33 39.835 27.413 86.239 27.413 134.998 0 191.152-154.96 346.112-346.112 346.112s-346.112-154.96-346.112-346.112c0-95.694 38.836-182.318 101.606-244.97q7.173-7.173 14.751-13.932l-50.381-50.381c-3.502-3.668-5.656-8.648-5.656-14.131s2.155-10.463 5.664-14.139l-0.008 0.008c3.668-3.502 8.648-5.656 14.131-5.656s10.463 2.155 14.139 5.664l53.854 54.264c55.239-39.122 124.008-62.537 198.246-62.537s143.008 23.415 199.326 63.262l52.578-54.383c3.668-3.502 8.648-5.656 14.131-5.656s10.463 2.155 14.139 5.664l-0.008-0.008c3.502 3.668 5.656 8.648 5.656 14.131s-2.155 10.463-5.664 14.139l-50.373 50.373q7.578 6.758 14.746 13.926c30.667 30.563 55.603 66.853 73.072 107.134zM480.256 407.040v220.365c0 3.619 2.934 6.554 6.554 6.554 0 0 0 0 0 0h26.829c0 0 0 0 0 0 3.619 0 6.554-2.934 6.554-6.554 0 0 0 0 0 0v-185.754c0-3.733 3.026-6.758 6.758-6.758h106.291c0 0 0 0 0 0 3.619 0 6.554-2.934 6.554-6.554 0 0 0 0 0 0v-26.829c0-3.619-2.934-6.554-6.554-6.554 0 0 0 0 0 0h-141.722c-6.272 0.223-11.271 5.361-11.271 11.667 0 0.146 0.003 0.292 0.008 0.438zM149.914 716.083l116.326 115.507c3.668 3.502 8.648 5.656 14.131 5.656s10.463-2.155 14.139-5.664l7.16-7.16c3.502-3.668 5.656-8.648 5.656-14.131s-2.155-10.463-5.664-14.139l-117.343-115.499c-3.668-3.502-8.648-5.656-14.131-5.656s-10.463 2.155-14.139 5.664l-7.16 7.16c-3.205 3.598-5.163 8.368-5.163 13.595 0 5.749 2.368 10.944 6.183 14.663zM741.376 824.422l7.168 7.168c3.668 3.502 8.648 5.656 14.131 5.656s10.463-2.155 14.139-5.664l115.499-115.5c3.502-3.668 5.656-8.648 5.656-14.131s-2.155-10.463-5.664-14.139l-7.16-7.16c-3.668-3.502-8.648-5.656-14.131-5.656s-10.463 2.155-14.139 5.664l-115.499 115.5c-3.502 3.668-5.656 8.648-5.656 14.131s2.155 10.463 5.664 14.139z" />
<glyph unicode="&#xe92d;" glyph-name="retract" d="M272.384 787.763h39.117c11.311 0 20.48-9.169 20.48-20.48v-680.755c0-11.311-9.169-20.48-20.48-20.48h-39.117c-11.311 0-20.48 9.169-20.48 20.48v680.755c0 11.311 9.169 20.48 20.48 20.48zM726.426 431.206l-303.718-303.718c-3.488-3.484-5.645-8.3-5.645-13.619s2.157-10.135 5.645-13.619l20.48-20.48c3.527-3.798 8.548-6.168 14.122-6.168 5.375 0 10.236 2.203 13.728 5.755l338.742 340.585c5.020 5.037 8.124 11.986 8.124 19.661s-3.104 14.624-8.125 19.662l-338.738 339.762c-3.484 3.488-8.3 5.645-13.619 5.645s-10.135-2.157-13.619-5.645l-20.48-20.48c-3.488-3.484-5.645-8.3-5.645-13.619s2.157-10.135 5.645-13.619l303.104-303.309c2.148-2.149 3.477-5.118 3.477-8.397s-1.329-6.247-3.477-8.397z" />
<glyph unicode="&#xe92e;" glyph-name="retract2" d="M272.384 787.763h39.117c11.311 0 20.48-9.169 20.48-20.48v-680.755c0-11.311-9.169-20.48-20.48-20.48h-39.117c-11.311 0-20.48 9.169-20.48 20.48v680.755c0 11.311 9.169 20.48 20.48 20.48zM508.723 448l303.514 303.718c3.488 3.484 5.645 8.3 5.645 13.619s-2.157 10.135-5.645 13.619l-20.48 20.48c-3.484 3.488-8.3 5.645-13.619 5.645s-10.135-2.157-13.619-5.645l-339.354-340.173c-5.020-5.037-8.124-11.986-8.124-19.661s3.104-14.624 8.125-19.662l339.762-340.582c3.484-3.488 8.3-5.645 13.619-5.645s10.135 2.157 13.619 5.645l20.48 20.48c3.488 3.484 5.645 8.3 5.645 13.619s-2.157 10.135-5.645 13.619l-303.923 304.128c-2.148 2.149-3.477 5.118-3.477 8.397s1.329 6.247 3.477 8.397z" />
<glyph unicode="&#xe92f;" glyph-name="time" d="M508.928 839.578c-218.864 0-396.288-177.424-396.288-396.288s177.424-396.288 396.288-396.288c218.792 0 396.171 177.307 396.288 396.072 0 0.072 0 0.144 0 0.216 0 218.864-177.424 396.288-396.288 396.288 0 0 0 0 0 0zM508.928 103.526c-187.646 0-339.763 152.117-339.763 339.763s152.117 339.763 339.763 339.763c187.646 0 339.763-152.117 339.763-339.763 0-0.072 0-0.144 0-0.216 0-187.635-152.117-339.752-339.763-339.752zM541.696 695.194h-40.96c0 0 0 0 0 0-4.185 0-7.578-3.393-7.578-7.578v-239.616c0-1.131-0.917-2.048-2.048-2.048 0 0 0 0 0 0h-167.322c-3.054 0-5.53-2.476-5.53-5.53v-46.694c0-3.054 2.476-5.53 5.53-5.53h210.944c0 0 0 0 0 0 8.031 0 14.541 6.51 14.541 14.541 0 0 0 0 0 0v285.082c-0.114 4.096-3.462 7.373-7.575 7.373-0.001 0-0.002 0-0.003 0z" />
<glyph unicode="&#xe930;" glyph-name="accounting" d="M491.52 427.52v368.64h4.096c-196.813 0-352.256-166.707-352.256-364.954 0.582-201.653 164.071-364.926 365.75-365.158 0.996-0.009 2.148-0.015 3.3-0.015 199.805 0 361.833 161.745 362.29 361.443 0 1.477 0 0.044 0 0.044h-383.181zM566.477 854.733h-13.517v-365.773h381.542c-0.348 202.087-164.251 365.776-366.387 365.776-0.576 0-1.152-0.001-1.728-0.004z" />
<glyph unicode="&#xe931;" glyph-name="company" d="M890.88 591.36c0.015 0 0.033 0 0.050 0 9.162 0 16.589 7.427 16.589 16.589 0 6.087-3.278 11.408-8.165 14.294l-374.042 220.612c-3.157 1.923-6.975 3.062-11.059 3.062s-7.902-1.139-11.154-3.116l-372.846-226.865c-3.291-2.533-5.391-6.473-5.391-10.904 0-7.169 5.498-13.054 12.508-13.669l44.698-0.004c0 0 0 0 0 0 8.37 0 15.155-6.785 15.155-15.155v-380.928c0-9.049-7.335-16.384-16.384-16.384h-27.443c-9.049 0-16.384-7.335-16.384-16.384v-54.886c0-8.596 6.969-15.565 15.565-15.565h723.354c8.596 0 15.565 6.969 15.565 15.565v53.658c0 9.049-7.335 16.384-16.384 16.384h-27.648c-9.049 0-16.384 7.335-16.384 16.384v387.686c0.115 4.662 3.921 8.397 8.599 8.397 0.001 0 0.002 0 0.003 0h51.2zM325.837 178.893c-9.049 0-16.384 7.335-16.384 16.384v380.109c-0.014 0.245-0.022 0.531-0.022 0.819 0 8.37 6.785 15.155 15.155 15.155 0.008 0 0.016 0 0.023 0h107.519c8.37 0 15.155-6.785 15.155-15.155v-376.832c0-11.311-9.169-20.48-20.48-20.48h-102.4zM592.077 178.893c-9.049 0-16.384 7.335-16.384 16.384v380.109c-0.015 0.248-0.023 0.539-0.023 0.831 0 8.162 6.452 14.817 14.534 15.143l111.441 0.001c0 0 0 0 0 0 8.37 0 15.155-6.785 15.155-15.155v-381.542c0-8.709-7.060-15.77-15.77-15.77 0 0 0 0 0 0h-109.568z" />
<glyph unicode="&#xe932;" glyph-name="email" d="M792.576 738.816h-539.648c-35.43 0-89.088-28.467-89.088-63.078v-12.493s303.104-250.266 358.81-250.266 359.834 249.651 359.834 249.651v13.517c0 34.202-54.477 62.669-89.907 62.669v0zM163.84 562.483v-354.918c21.583-26.222 53.665-43.126 89.724-44.232l539.012-0.004c36.022 2.071 67.791 18.717 89.772 44.077l0.136 356.102s-255.795-225.28-359.629-225.28-359.014 224.256-359.014 224.256v0z" />
<glyph unicode="&#xe933;" glyph-name="erification" d="M341.402 697.242c0-50.899-41.261-92.16-92.16-92.16s-92.16 41.261-92.16 92.16c0 50.899 41.261 92.16 92.16 92.16s92.16-41.261 92.16-92.16zM606.822 697.242c0-50.899-41.261-92.16-92.16-92.16s-92.16 41.261-92.16 92.16c0 50.899 41.261 92.16 92.16 92.16s92.16-41.261 92.16-92.16zM872.448 697.242c0-50.899-41.261-92.16-92.16-92.16s-92.16 41.261-92.16 92.16c0 50.899 41.261 92.16 92.16 92.16s92.16-41.261 92.16-92.16zM341.402 423.219c0-50.899-41.261-92.16-92.16-92.16s-92.16 41.261-92.16 92.16c0 50.899 41.261 92.16 92.16 92.16s92.16-41.261 92.16-92.16zM606.822 423.219c0-50.899-41.261-92.16-92.16-92.16s-92.16 41.261-92.16 92.16c0 50.899 41.261 92.16 92.16 92.16s92.16-41.261 92.16-92.16zM872.448 423.219c0-50.899-41.261-92.16-92.16-92.16s-92.16 41.261-92.16 92.16c0 50.899 41.261 92.16 92.16 92.16s92.16-41.261 92.16-92.16zM341.402 149.402c0-50.899-41.261-92.16-92.16-92.16s-92.16 41.261-92.16 92.16c0 50.899 41.261 92.16 92.16 92.16s92.16-41.261 92.16-92.16zM606.822 149.402c0-50.899-41.261-92.16-92.16-92.16s-92.16 41.261-92.16 92.16c0 50.899 41.261 92.16 92.16 92.16s92.16-41.261 92.16-92.16zM872.448 149.402c0-50.899-41.261-92.16-92.16-92.16s-92.16 41.261-92.16 92.16c0 50.899 41.261 92.16 92.16 92.16s92.16-41.261 92.16-92.16z" />
<glyph unicode="&#xe934;" glyph-name="export" d="M522.24 85.709h-368.64c-0.482-0.018-1.049-0.028-1.617-0.028-22.361 0-41.099 15.514-46.037 36.366-0.99 4.317-1.52 8.905-1.52 13.617 0 0.582 0.008 1.162 0.024 1.74q-0.002 77.534-0.002 155.153c-0.042 0.748-0.066 1.623-0.066 2.504 0 26.354 21.364 47.718 47.718 47.718 0.743 0 1.483-0.017 2.218-0.051l227.019 0.004c0.165 0.009 0.357 0.014 0.551 0.014 3.277 0 6.221-1.425 8.246-3.689 22.128-22.334 43.837-45.271 66.774-66.775 17.206-16.296 40.5-26.317 66.134-26.317 27.17 0 51.711 11.257 69.213 29.362 20.506 20.507 42.42 42.83 63.924 64.13 2.030 1.939 4.753 3.167 7.761 3.276l225.301 0.001c0.816 0.049 1.769 0.077 2.729 0.077 26.58 0 48.128-21.548 48.128-48.128 0-0.892-0.024-1.778-0.072-2.658q0.005-77.701 0.005-155.73c0.034-0.684 0.054-1.485 0.054-2.29 0-22.309-15.051-41.103-35.553-46.781-4.582-1.125-9.45-1.725-14.459-1.725-0.293 0-0.585 0.002-0.877 0.006h-368.596zM812.032 181.76c-0.002-0.122-0.003-0.265-0.003-0.409 0-17.758 14.396-32.154 32.154-32.154s32.154 14.396 32.154 32.154c0 17.685-14.278 32.035-31.935 32.153-17.624-0.109-31.914-14.183-32.369-31.702l-0.001-0.042zM747.725 181.76c-0.117 17.669-14.467 31.948-32.153 31.948-17.758 0-32.154-14.396-32.154-32.154 0-17.686 14.279-32.036 31.937-32.153 17.836 0.115 32.254 14.534 32.369 32.347v0.011zM426.189 600.166v220.979c-0.13 1.1-0.204 2.374-0.204 3.666 0 18.21 14.762 32.973 32.973 32.973 1.226 0 2.437-0.067 3.628-0.197l120.89 0.013c0.907 0.090 1.961 0.141 3.026 0.141 17.984 0 32.563-14.579 32.563-32.563 0-1.131-0.058-2.249-0.17-3.351l0.011-221.66h129.843c0.277 0.010 0.604 0.015 0.931 0.015 11.535 0 21.479-6.811 26.029-16.631 3.079-4.742 4.868-10.341 4.868-16.356s-1.789-11.614-4.864-16.291c-1.91-2.539-3.992-4.881-6.256-7.034l-221.822-221.206c-5.972-6.983-14.791-11.381-24.638-11.381-6.015 0-11.647 1.641-16.472 4.5-2.995 2.091-5.744 4.449-8.225 7.063l-221.206 220.388c-7.473 5.902-12.225 14.963-12.225 25.134 0 9.025 3.742 17.175 9.758 22.985 5.478 5.827 13.223 9.451 21.815 9.451 0.398 0 0.794-0.008 1.188-0.023l128.558 0.002z" />
<glyph unicode="&#xe935;" glyph-name="remarks" d="M762.88 262.246c-1.023 73.962-47.585 136.792-112.87 161.796l-1.204 240.636c0.81-0.034 1.761-0.053 2.716-0.053 38.344 0 69.427 31.084 69.427 69.427 0 0.955-0.019 1.906-0.057 2.851l0.004 11.948c0.006 0.33 0.009 0.72 0.009 1.11 0 17.846-6.854 34.090-18.074 46.245-13.397 12.253-31.232 19.946-50.855 20.432l-276.577 0.002c-0.81 0.034-1.761 0.053-2.716 0.053-38.344 0-69.427-31.084-69.427-69.427 0-0.955 0.019-1.906 0.057-2.851l-0.004-9.695c0.488-19.721 8.181-37.555 20.534-51.055 13.369-12.271 31.214-19.972 50.852-20.419l0.089-241.87c-66.453-25.457-112.99-88.259-114.072-162.069-0.002-11.443 9.168-20.612 20.478-20.612h204.8v-179.814c0.563-12.402 10.755-22.243 23.245-22.243 12.85 0 23.267 10.417 23.267 23.267 0 0.36-0.008 0.718-0.024 1.075l0.002 177.101h206.438c3.072 3.072 12.083 5.939 14.95 9.011v0c4.262 4.001 7.41 9.141 8.961 14.933zM603.75 548.966v0z" />
<glyph unicode="&#xe936;" glyph-name="add22" d="M816.538 399.667h-604.16c-26.693 0-48.333 21.639-48.333 48.333s21.639 48.333 48.333 48.333h604.16c26.693 0 48.333-21.639 48.333-48.333s-21.639-48.333-48.333-48.333zM466.125 145.92v604.16c0 26.693 21.639 48.333 48.333 48.333s48.333-21.639 48.333-48.333v-604.16c0-26.693-21.639-48.333-48.333-48.333s-48.333 21.639-48.333 48.333z" />
<glyph unicode="&#xe937;" glyph-name="arrow" d="M506.88 293.581l-314.368 314.368c-3.656 3.443-8.595 5.559-14.029 5.559s-10.373-2.116-14.039-5.569l-20.47-20.47c-3.502-3.668-5.656-8.648-5.656-14.131s2.155-10.463 5.664-14.139l351.224-352.043c5.232-5.262 12.476-8.519 20.48-8.519s15.248 3.257 20.479 8.518l351.438 351.848c3.443 3.656 5.559 8.595 5.559 14.029s-2.116 10.373-5.569 14.039l-20.47 20.47c-3.656 3.443-8.595 5.559-14.029 5.559s-10.373-2.116-14.039-5.569l-314.767-313.949c-2.225-2.233-5.303-3.614-8.704-3.614s-6.479 1.381-8.704 3.614z" />
<glyph unicode="&#xe938;" glyph-name="password" d="M759.194 556.749h-61.44c0 94.389-76.517 170.906-170.906 170.906s-170.906-76.517-170.906-170.906h-61.44c0 117.965 104.038 234.701 232.038 234.701s232.653-116.736 232.653-234.701zM795.443 456.397c0 33.932-27.508 61.44-61.44 61.44h-408.371c-33.932 0-61.44-27.508-61.44-61.44v-290.611c0-33.932 27.508-61.44 61.44-61.44h408.576c33.932 0 61.44 27.508 61.44 61.44v290.611zM578.97 229.069c0-0.001 0-0.003 0-0.004 0-25.336-20.539-45.875-45.875-45.875-0.216 0-0.432 0.001-0.647 0.004h-5.702c0 0 0 0 0 0-25.336 0-45.875 20.539-45.875 45.875 0 0 0 0 0 0v124.518c0 25.336 20.539 45.875 45.875 45.875 0 0 0 0 0 0h5.734c0 0 0 0 0 0 25.336 0 45.875-20.539 45.875-45.875 0 0 0 0 0 0v-124.518z" />
<glyph unicode="&#xe939;" glyph-name="question" d="M529.818 83.661c-201.131 0.117-364.134 163.192-364.134 364.339 0 201.219 163.12 364.339 364.339 364.339s364.339-163.12 364.339-364.339c-0.233-201.197-163.331-364.223-364.533-364.339zM529.818 754.79c-169.662 0-307.2-137.538-307.2-307.2s137.538-307.2 307.2-307.2c169.662 0 307.2 137.538 307.2 307.2 0 0.122 0 0.266 0 0.41 0 169.662-137.538 307.2-307.2 307.2 0 0 0 0 0 0zM550.707 351.539h-74.138v26.419c-0.026 0.895-0.041 1.948-0.041 3.004 0 17.539 4.098 34.12 11.388 48.839 9.323 16.197 21.65 30.353 36.257 41.716 15.502 11.985 28.546 25.485 39.453 40.626 6.28 9.808 9.787 21.060 9.813 33.129 0.026 0.557 0.041 1.201 0.041 1.849 0 12.545-5.64 23.773-14.522 31.286-10.411 7.782-23.459 12.431-37.593 12.431-1.206 0-2.404-0.034-3.593-0.101-37.888-0.536-72.369-15.39-98.232-39.4l0.093 86.716c30.704 17.649 67.511 28.059 106.748 28.059 0.271 0 0.542 0 0.813-0.001 2.745 0.182 6.001 0.285 9.282 0.285 34.107 0 65.604-11.176 91.028-30.066 21.477-17.835 35.314-45.013 35.314-75.424 0-1.462-0.032-2.917-0.095-4.363 0.011-0.163 0.013-0.6 0.013-1.037 0-21.357-5.385-41.455-14.872-59.012-13.021-21.505-29.827-40.139-49.569-55.103-15.254-10.986-27.892-23.364-38.464-37.388-5.492-9.254-8.547-19.848-8.547-31.155 0-0.723 0.012-1.444 0.037-2.161l-0.003-19.352zM513.843 310.579c0.321 0.007 0.7 0.011 1.079 0.011 13.652 0 26.085-5.218 35.414-13.768 9.263-7.975 15.117-19.766 15.117-32.925 0-0.077 0-0.153-0.001-0.229 0-0.016 0-0.048 0-0.080 0-13.071-5.859-24.774-15.094-32.625-9.351-8.565-21.784-13.783-35.436-13.783-0.38 0-0.758 0.004-1.136 0.012-0.317-0.011-0.758-0.016-1.199-0.016-13.632 0-26.025 5.306-35.225 13.966-9.151 7.976-14.92 19.686-14.924 32.743-0.001 0.096-0.001 0.208-0.001 0.32 0 13.15 5.764 24.953 14.904 33.022 9.167 8.318 21.331 13.385 34.679 13.385 0.641 0 1.28-0.012 1.915-0.035z" />
<glyph unicode="&#xe93a;" glyph-name="required" d="M579.174 515.174c37.888 17.613 74.752 35.43 109.568 52.838s62.464 30.72 81.92 38.912c14.437 6.686 31.217 11.152 48.875 12.464 1.036 0.043 1.688 0.052 2.343 0.052 19.993 0 38.162-7.806 51.627-20.536 13.823-12.327 22.507-30.235 22.507-50.17 0-0.494-0.005-0.987-0.016-1.479-0.396-13.627-4.461-26.301-11.238-37.099-5.032-10.097-13.048-18.442-22.881-23.917-72.642-28.964-157.189-51.718-244.962-64.529 10.18-15.899 30.66-36.379 55.236-62.183s37.069-38.912 37.888-40.96c8.806-12.493 20.48-27.648 37.069-45.875 11.674-12.782 22.59-26.756 32.388-41.536 6.606-11.553 10.033-23.854 10.033-36.956 0-0.701-0.010-1.4-0.029-2.096 0.004-0.085 0.005-0.306 0.005-0.528 0-19.084-7.838-36.337-20.471-48.715-13.36-12.74-31.475-20.572-51.42-20.572-1.223 0-2.44 0.029-3.649 0.088-22.153-0.007-47.343 17.606-75.401 52.013-39.321 54.196-75.416 115.777-105.327 180.791-47.453-75.114-77.764-128.158-92.919-154.167-12.722-22.288-27.32-41.517-44.078-58.62-12.336-12.497-29.489-20.306-48.467-20.432-0.541-0.013-1.15-0.021-1.761-0.021-20.765 0-39.49 8.73-52.708 22.719-12.821 12.161-21.001 29.037-21.737 47.826-0.1 1.42-0.155 2.922-0.155 4.437 0 11.811 3.333 22.844 9.11 32.209 52.059 71.005 107.938 133.705 169.217 190.674q-73.522 12.223-131.686 26.354c-47.921 11.97-88.857 25.993-128.197 43.007-3.692 3.915-10.729 12.203-15.024 21.97-6.355 10.48-10.302 22.606-10.986 35.597-0.017 0.606-0.023 1.099-0.023 1.594 0 19.936 8.684 37.843 22.476 50.146 13.197 12.735 31.097 20.546 50.822 20.546 0.372 0 0.744-0.003 1.115-0.008 19.357-1.098 37.434-5.663 53.95-13.084 19.517-8.419 46.96-20.093 79.728-36.887s70.042-34.202 111.821-54.272c-7.412 34.455-14.13 77.989-18.603 122.186-5.563 53.328-8.021 86.096-8.021 104.118-0.011 0.508-0.018 1.106-0.018 1.705 0 20.826 7.771 39.837 20.573 54.291 12.47 14.501 30.948 23.681 51.57 23.681 0.42 0 0.839-0.004 1.257-0.011 0.528 0.020 1.223 0.030 1.921 0.030 20.238 0 38.367-9.033 50.575-23.286 12.878-15.588 20.643-35.658 20.643-57.542 0-1.403-0.032-2.798-0.095-4.186 0.007-6.766-1.222-20.283-3.065-41.787s-4.915-46.080-8.806-75.776-8.192-64.102-12.698-102.4v0z" />
<glyph unicode="&#xe93b;" glyph-name="choice" d="M877.363 654.643l-24.986 24.986c-4.971 4.997-11.853 8.089-19.456 8.089s-14.485-3.092-19.455-8.088l-344.27-344.065c-2.553-2.763-6.195-4.488-10.24-4.488s-7.687 1.725-10.231 4.478l-167.125 167.126c-4.971 4.997-11.853 8.089-19.456 8.089s-14.485-3.092-19.455-8.088l-26.011-26.011c-4.997-4.971-8.089-11.853-8.089-19.456s3.092-14.485 8.088-19.455l203.368-203.368c9.596-9.582 22.845-15.507 37.478-15.507s27.882 5.925 37.479 15.508l382.361 381.542c4.935 4.961 7.986 11.801 7.986 19.354s-3.051 14.393-7.988 19.355z" />
<glyph unicode="&#xe93c;" glyph-name="close" d="M762.233 627.532l-427.206-427.206c-18.875-18.875-49.478-18.875-68.353 0s-18.875 49.478 0 68.353l427.206 427.206c18.875 18.875 49.478 18.875 68.353 0s18.875-49.478 0-68.353zM693.989 200.225l-427.206 427.206c-18.875 18.875-18.875 49.478 0 68.353s49.478 18.875 68.353 0l427.206-427.206c18.875-18.875 18.875-49.478 0-68.353s-49.478-18.875-68.353 0z" />
<glyph unicode="&#xe93d;" glyph-name="framework" d="M242.074 474.829h258.458c3.846 0 6.963-3.118 6.963-6.963v-137.83c0.114-9.455 7.748-17.089 17.192-17.203h0.011c9.455 0.114 17.089 7.748 17.203 17.192v138.456c0 3.846 3.118 6.963 6.963 6.963h263.373c0.194 0.021 0.419 0.033 0.648 0.033 3.506 0 6.349-2.842 6.349-6.349 0-0.228-0.012-0.453-0.035-0.675l0.002-155.62c0.114-9.455 7.748-17.089 17.192-17.203h0.011c9.455 0.114 17.089 7.748 17.203 17.192v167.947c0.001 0.063 0.001 0.137 0.001 0.211 0 15.722-12.745 28.467-28.467 28.467-0.216 0-0.432-0.002-0.647-0.007l-275.629 0.001c-3.846 0-6.963 3.118-6.963 6.963v46.49c-0.114 9.455-7.748 17.089-17.192 17.203h-0.011c-9.455-0.114-17.089-7.748-17.203-17.192v-46.705c0-3.846-3.118-6.963-6.963-6.963h-275.251c-15.609 0-28.262-12.654-28.262-28.262v-168.141c0.114-9.455 7.748-17.089 17.192-17.203h0.011c9.455 0.114 17.089 7.748 17.203 17.192v151.768c0 0.002 0 0.005 0 0.008 0 5.655 4.585 10.24 10.24 10.24 0.144 0 0.287-0.003 0.43-0.009zM140.083 272.691h151.347c19.341 0 35.021-15.679 35.021-35.021v-151.347c0-19.341-15.679-35.021-35.021-35.021h-151.347c-19.341 0-35.021 15.679-35.021 35.021v151.347c0 19.341 15.679 35.021 35.021 35.021zM449.946 272.691h151.347c19.341 0 35.021-15.679 35.021-35.021v-151.347c0-19.341-15.679-35.021-35.021-35.021h-151.347c-19.341 0-35.021 15.679-35.021 35.021v151.347c0 19.341 15.679 35.021 35.021 35.021zM760.013 272.691h151.347c19.341 0 35.021-15.679 35.021-35.021v-151.347c0-19.341-15.679-35.021-35.021-35.021h-151.347c-19.341 0-35.021 15.679-35.021 35.021v151.347c0 19.341 15.679 35.021 35.021 35.021zM398.541 832h249.037c24.997 0 45.261-20.264 45.261-45.261v-141.517c0-24.997-20.264-45.261-45.261-45.261h-249.037c-24.997 0-45.261 20.264-45.261 45.261v141.517c0 24.997 20.264 45.261 45.261 45.261z" />
<glyph unicode="&#xe93e;" glyph-name="Import" d="M737.28 562.688c-28.058 103.834-110.592 190.464-228.762 190.464-137.216 0.205-242.278-79.872-252.518-231.629-85.811 0-160.358-44.851-160.358-157.696 0-95.642 56.525-188.621 157.901-202.547h526.336c117.965 17.408 168.96 121.446 168.96 230.4 0 123.904-72.909 214.221-211.558 171.008zM653.312 402.944l-118.17-118.784c-3.091-3.481-7.578-5.663-12.575-5.663-2.894 0-5.617 0.732-7.993 2.021-1.936 1.037-3.682 2.261-5.264 3.667l-114.455 114.254c-10.035 10.65-11.878 29.082 10.65 29.082h65.536v115.712c-0.045 0.468-0.070 1.013-0.070 1.563 0 9.614 7.794 17.408 17.408 17.408 0.747 0 1.482-0.047 2.204-0.138l63.607 0.009c0.498 0.050 1.076 0.079 1.661 0.079 9.727 0 17.613-7.886 17.613-17.613 0-0.316-0.008-0.63-0.025-0.941l0.002-116.078h66.15c22.733 0 21.914-15.974 13.517-24.371z" />
<glyph unicode="&#xe93f;" glyph-name="screen" d="M839.68 770.765h-632.218c-11.311 0-20.48-9.169-20.48-20.48v-42.394c0-0.013 0-0.027 0-0.042 0-9.457 3.748-18.038 9.84-24.339l221.789-227.728c5.187-5.288 8.439-12.489 8.601-20.449l0.001-266.271c0.461-8.332 5.467-15.394 12.564-18.784l151.685-84.23c2.13-0.821 4.595-1.296 7.171-1.296 11.191 0 20.285 8.975 20.477 20.12v349.816c0.163 7.991 3.415 15.192 8.606 20.485l221.384 228.552c6.082 6.291 9.83 14.872 9.83 24.329 0 0.015 0 0.030 0 0.044v42.391c-0.091 10.807-8.54 19.612-19.193 20.272z" />
<glyph unicode="&#xe940;" glyph-name="search" d="M334.848 731.853c-65.773-46.741-108.167-122.655-108.167-208.47 0-140.819 114.157-254.976 254.976-254.976s254.976 114.157 254.976 254.976c0 55.099-17.477 106.116-47.19 147.811-46.226 64.865-122.066 107.165-207.786 107.165-55.004 0-105.94-17.417-147.594-47.036zM605.798 345.6c-34.741-24.65-78.010-39.406-124.725-39.406-119.894 0-217.088 97.194-217.088 217.088s97.194 217.088 217.088 217.088c73.232 0 137.995-36.261 177.313-91.808 25.053-35.394 39.775-78.618 39.775-125.28 0-73.179-36.209-137.902-91.689-177.228zM613.698 338.071l3.857 2.704c14.262 10.001 33.93 6.547 43.931-7.715l130.873-186.628c10.001-14.262 6.547-33.93-7.715-43.931l-3.857-2.704c-14.262-10.001-33.93-6.547-43.931 7.715l-130.873 186.628c-10.001 14.262-6.547 33.93 7.715 43.931z" />
<glyph unicode="&#xe941;" glyph-name="upload" d="M729.702 569.037c-28.058 103.834-110.592 190.464-228.762 190.464-137.011 0-242.893-79.462-252.518-231.834-85.811 0-160.358-48.128-160.358-160.768 0-95.642 56.525-184.32 157.901-204.8h526.336c118.17 19.661 169.779 123.904 169.779 232.858 0 123.699-73.523 216.883-212.378 174.080zM635.904 407.040h-62.464v-105.062c0-11.311-9.169-20.48-20.48-20.48h-65.946c-10.133 0.114-18.318 8.299-18.432 18.421v107.121h-71.066c-0.511-0.057-1.104-0.089-1.704-0.089-9.049 0-16.384 7.335-16.384 16.384 0 4.41 1.742 8.413 4.576 11.358 1.224 1.224 79.867 83.553 117.96 121.851 3.216 4.089 8.163 6.692 13.718 6.692 2.442 0 4.766-0.503 6.875-1.41 1.525-0.981 81.807-81.877 120.719-119.355 15.155-14.95 15.565-35.43-7.373-35.43z" />
<glyph unicode="&#xe942;" glyph-name="add" d="M523.878 852.48c-218.864 0-396.288-177.424-396.288-396.288s177.424-396.288 396.288-396.288c218.864 0 396.288 177.424 396.288 396.288s-177.424 396.288-396.288 396.288zM523.878 116.429c-187.646 0-339.763 152.117-339.763 339.763s152.117 339.763 339.763 339.763c187.646 0 339.763-152.117 339.763-339.763s-152.117-339.763-339.763-339.763zM373.35 489.165h301.056c16.853 0 30.515-13.662 30.515-30.515v-2.253c0-16.853-13.662-30.515-30.515-30.515h-301.056c-16.853 0-30.515 13.662-30.515 30.515v2.253c0 16.853 13.662 30.515 30.515 30.515zM492.134 306.893v301.056c0 16.853 13.662 30.515 30.515 30.515h2.253c16.853 0 30.515-13.662 30.515-30.515v-301.056c0-16.853-13.662-30.515-30.515-30.515h-2.253c-16.853 0-30.515 13.662-30.515 30.515z" />
</font>
</defs>
</svg>
